<svg version="1.1" id="Layer_1" xmlns="http://www.w3.org/2000/svg" xmlns:xlink="http://www.w3.org/1999/xlink" x="0px" y="0px"
	 width="560.014px" height="178.438px" viewBox="0 0 560.014 178.438" enable-background="new 0 0 560.014 178.438"
	 xml:space="preserve">
<g>
	<g>
		<path fill="#150F0C" stroke="#150F0C" d="M387.18,90.733c0.48-0.375,1.064-0.613,1.573-0.955c0.247-0.165,0.507-0.389,0.63-0.648
			c0.653-1.387,1.297-2.777,1.878-4.195c0.275-0.675,0.228-1.403-0.022-2.107c-0.188-0.528-1.094-0.868-1.541-0.506
			c-0.391,0.314-0.778,0.675-1.041,1.094c-1.046,1.669-2.506,2.961-3.85,4.363c-1.375,0.656-1.997,2.009-2.842,3.145
			c-0.14,0.188-0.02,0.568-0.02,0.8C383.919,92.37,385.619,91.952,387.18,90.733z"/>
		<path fill="#150F0C" stroke="#150F0C" d="M382.591,81.955c0.062-0.304-0.51-0.877-0.794-0.771
			c-0.286,0.106-0.642,0.145-0.845,0.341c-1.189,1.146-2.533,2.102-3.828,3.114c-1.055,0.823-2.107,1.672-3.246,2.364
			c-4.675,2.847-9.525,5.331-14.724,7.104c-1.356,0.463-2.637,1.157-3.947,1.753c-0.086,0.039-0.183,0.128-0.211,0.214
			c-0.091,0.281-0.264,0.603-0.194,0.85c0.068,0.244,0.363,0.531,0.611,0.598c0.386,0.1,0.815,0.024,1.207,0.024
			c0.952,0.181,1.853,0.192,2.729-0.278c0.351-0.188,0.789-0.229,1.194-0.286c1.633-0.236,3.265-0.465,4.786-1.159
			c1.904-0.214,3.479-1.178,5.042-2.189c0.517-0.333,1.062-0.627,1.62-0.888c2.655-1.24,4.72-3.277,6.924-5.125
			c0.078-0.065,0.137-0.156,0.204-0.234c1.352-1.567,2.428-3.322,3.428-5.126C382.595,82.175,382.571,82.055,382.591,81.955z"/>
		<path fill="#150F0C" stroke="#150F0C" d="M287.828,89.417c0.207,0.308,0.313,0.658,0.411,0.997
			c0.119,0.413,0.182,0.834,0.257,1.199c0.179,0.387,0.267,0.75,0.497,1.05c0.89,1.16,1.766,2.328,2.811,3.413
			c0.156,0.162,0.407,0.292,0.646,0.383c0.399,0.152,0.804,0.312,1.274,0.195c0.305-0.074,0.369-0.315,0.123-0.937
			c-0.27-0.678-0.529-1.36-0.871-2.02c-0.343-0.662-0.677-1.315-0.803-2.024c-0.062-0.347-0.186-0.693-0.331-1.028
			c-0.677-1.552-1.126-3.144-1.385-4.744c-0.229-1.413-0.729-2.77-1.207-4.135c-0.067-0.194-0.217-0.403-0.405-0.537
			c-0.184-0.129-0.484-0.249-0.701-0.228c-0.216,0.022-0.42,0.207-0.572,0.356c-0.103,0.099-0.127,0.258-0.146,0.395
			c-0.271,1.935-0.77,3.859-0.021,5.832c0.051,0.131,0.039,0.284,0.008,0.418C287.294,88.517,287.521,88.962,287.828,89.417z"/>
		<path fill="#150F0C" stroke="#150F0C" d="M278.189,81.816c-0.018-0.14-0.041-0.302-0.137-0.402
			c-0.145-0.151-0.337-0.34-0.539-0.362c-0.205-0.021-0.488,0.101-0.661,0.23c-0.179,0.136-0.318,0.349-0.382,0.546
			c-0.451,1.39-0.922,2.77-1.137,4.206c-0.244,1.629-0.668,3.248-1.305,4.826c-0.138,0.34-0.254,0.692-0.312,1.047
			c-0.117,0.721-0.432,1.386-0.756,2.06c-0.322,0.669-0.566,1.364-0.82,2.055c-0.231,0.631-0.171,0.876,0.115,0.952
			c0.445,0.116,0.826-0.044,1.202-0.2c0.225-0.092,0.461-0.224,0.608-0.39c0.983-1.103,1.809-2.292,2.646-3.472
			c0.217-0.305,0.301-0.674,0.469-1.067c0.071-0.371,0.13-0.8,0.242-1.221c0.092-0.344,0.192-0.702,0.387-1.013
			c0.291-0.464,0.504-0.916,0.393-1.438c-0.029-0.137-0.041-0.293,0.006-0.426C278.915,85.742,278.445,83.783,278.189,81.816z"/>
		<path fill="#150F0C" stroke="#150F0C" d="M187.235,88.735c0.348,0.178,0.595,0.555,0.882,0.846c0.359,0.364,0.66,0.811,1.074,1.09
			c1.514,1.024,2.79,2.432,4.695,2.842c0.584,0.126,1.097,0.559,1.661,0.811c1.5,0.669,2.973,1.417,4.582,1.804
			c0.995,0.238,2.016,0.375,3.004,0.639c1.693,0.449,3.39,0.786,5.276,0.592c0.479-0.017,1.086,0.359,1.676,0.016
			c0.135-0.079,0.265-0.358,0.229-0.508c-0.127-0.531-0.556-0.875-1.005-1.089c-0.923-0.438-1.864-0.884-2.845-1.146
			c-0.709-0.188-1.354-0.393-1.96-0.821c-0.406-0.289-0.92-0.433-1.397-0.608c-0.77-0.285-1.573-0.488-2.319-0.824
			c-2.716-1.22-5.292-2.732-8.053-3.861c-0.369-0.151-0.676-0.46-1.006-0.704c-2.147-1.593-4.284-3.199-6.446-4.773
			c-0.745-0.542-1.55-1.001-2.332-1.491c-0.206-0.129-0.694,0.174-0.676,0.438c0.029,0.404,0.007,0.858,0.188,1.195
			c0.337,0.629,0.805,1.188,1.218,1.776C184.685,86.383,185.592,87.893,187.235,88.735z"/>
		<path fill="#150F0C" stroke="#150F0C" d="M180.502,88.324c-0.262-0.421-0.706-0.749-1.115-1.056c-1.338-1-2.554-2.064-3.138-3.729
			c-0.254-0.723-0.976-1.029-1.752-1.081c-0.482-0.047-1.062,0.423-1.091,0.889c-0.103,1.583,0.053,3.147,0.996,4.452
			c1.55,2.146,3.525,3.767,6.163,4.438c0.652,0.166,1.222-0.011,1.777-0.315c0.438-0.24,0.6-1.024,0.249-1.336
			C181.817,89.902,181.059,89.223,180.502,88.324z"/>
		<path fill="#150F0C" stroke="#150F0C" d="M418.075,113.005c-0.251-0.163-0.548-0.327-0.835-0.347
			c-0.639-0.045-1.146-0.192-1.629-0.699c-0.568-0.596-2.816-1.411-3.669-1.375c-0.972,0.041-1.817-0.19-2.669-0.63
			c-1.196-0.615-2.452-0.991-3.829-1.114c-1.528-0.137-3.074-0.436-4.534-0.904c-1.691-0.545-3.4-0.839-5.152-0.984
			c-0.516-0.042-1.068,0.016-1.537-0.155c-2.258-0.821-4.739-0.241-6.986-1.18c-0.53-0.222-1.273,0.093-1.823-0.106
			c-1.207-0.438-2.397-0.504-3.652-0.353c-0.711,0.086-1.449,0.027-2.165-0.046c-1.411-0.146-2.773-0.812-4.248-0.313
			c-0.25,0.085-0.594-0.14-0.898-0.177c-0.611-0.072-1.229-0.16-1.842-0.161c-2.271-0.002-4.538,0.031-6.809,0.047
			c-4.131,0.03-8.261,0.05-12.391,0.097c-0.613,0.007-1.249,0.065-1.829,0.247c-1.219,0.383-2.451,0.409-3.683,0.236
			c-0.845-0.118-1.642-0.096-2.438,0.191c-0.99,0.355-2.007,0.424-3.056,0.357c-0.609-0.037-1.257-0.007-1.844,0.154
			c-1.101,0.305-2.189,0.545-3.346,0.489c-1.142-0.054-2.168,0.724-3.342,0.53c-2.854,0.384-5.71,0.741-8.518,1.404
			c-1.204,0.284-2.402,0.586-3.656,0.621c-0.502,0.016-1.018,0.185-1.491,0.369c-1.556,0.604-3.174,0.895-4.816,1.131
			c-1.427,0.205-2.878,0.388-4.146,1.174c-0.469,0.291-0.974,0.279-1.494,0.247c-0.199-0.013-0.465-0.004-0.597,0.111
			c-0.797,0.702-1.801,0.898-2.759,1.214c-0.073,0.024-0.127,0.151-0.165,0.241c-0.094,0.226-0.006,0.385,0.229,0.493
			c1.018,0.467,2.054,0.316,3.019-0.063c1.188-0.469,2.367-0.657,3.636-0.522c0.496,0.053,1.019-0.095,1.522-0.182
			c0.913-0.156,1.818-0.356,2.733-0.505c0.813-0.132,1.651-0.15,2.452-0.337c0.913-0.21,1.824-0.292,2.756-0.343
			c1.541-0.085,3.115-0.125,4.605-0.475c3.128-0.734,6.293-1.112,9.483-1.346c1.533-0.111,3.099,0.121,4.587-0.48
			c0.271-0.108,0.612-0.04,0.922-0.054c1.03-0.044,2.062-0.067,3.093-0.135c4.225-0.275,8.438-0.748,12.684-0.62
			c0.514,0.016,1.039,0.021,1.545-0.061c1.742-0.285,3.509,0.046,5.248-0.232c2.047,0.334,4.111,0.095,6.167,0.183
			c3.092,0.132,6.188,0.12,9.283,0.179c0.515,0.01,1.035,0.028,1.543,0.108c1.94,0.308,3.896,0.426,5.856,0.508
			c1.541,0.063,3.079,0.203,4.619,0.312c3.915,0.28,7.721,1.342,11.631,1.659c1.39,0.454,2.825,0.556,4.274,0.626
			c0.504,0.025,1.064,0.111,1.486,0.361c0.942,0.559,1.967,0.556,2.988,0.659c1.941,0.195,3.925,0.139,5.777,0.904
			C418.533,113.575,418.434,113.239,418.075,113.005z"/>
		<path fill="#150F0C" stroke="#150F0C" d="M258.087,113.105c-1.643-0.597-3.281-1.2-4.913-1.826
			c-0.366-0.141-0.813-0.102-1.222-0.09c-0.631,0.017-1.219-0.072-1.792-0.373c-2.14-1.122-4.507-1.491-6.838-1.895
			c-2.644-0.458-5.265-0.979-7.864-1.634c-0.393-0.1-0.804-0.146-1.209-0.167c-2.163-0.104-4.324-0.2-6.425-0.806
			c-0.394-0.114-0.81-0.163-1.219-0.209c-3.688-0.411-7.376-0.814-11.088-0.953c-1.031-0.038-2.095,0.021-3.08-0.223
			c-1.245-0.31-2.439-0.264-3.673-0.093c-0.499,0.069-1.033,0.048-1.526-0.055c-1.836-0.386-3.703-0.449-5.556-0.411
			c-4.638,0.095-9.288-0.096-13.907,0.442c-1.039,0.121-2.075-0.148-3.075,0.071c-1.918,0.425-3.935,0.06-5.815,0.782
			c-0.365,0.143-0.818,0.052-1.231,0.072c-0.516,0.024-1.041-0.001-1.544,0.09c-1.926,0.348-3.844,0.734-5.767,1.1
			c-0.4,0.075-0.835,0.239-1.206,0.154c-1.594-0.371-3.039,0.492-4.581,0.484c-2.933,1.007-6.047,1.315-8.975,2.371
			c-0.942,0.339-1.901,0.779-2.996,0.683c-0.469-0.042-1.015,0.209-1.448,0.462c-0.813,0.477-1.629,0.836-2.58,0.982
			c-0.696,0.106-1.377,0.452-1.804,1.098c-0.048,0.072-0.033,0.206-0.009,0.301c0.021,0.077,0.086,0.181,0.153,0.202
			c1.131,0.381,2.315,0.217,3.359-0.112c1.982-0.628,3.99-0.962,6.036-1.229c0.914-0.119,1.803-0.418,2.747-0.412
			c0.403,0.003,0.86-0.031,1.198-0.22c0.667-0.372,1.383-0.344,2.087-0.479c3.136-0.597,6.345-0.611,9.476-1.263
			c1.305-0.271,2.672-0.448,3.995-0.378c1.469,0.079,2.87-0.105,4.299-0.344c1.83-0.305,3.669-0.419,5.546-0.368
			c2.048,0.056,4.117-0.146,6.17-0.307c0.927-0.072,1.846-0.149,2.775-0.135c2.673,0.047,5.345,0.147,8.021,0.089
			c1.639-0.034,3.295-0.3,4.924,0.258c0.459,0.157,1.022,0.008,1.537,0.011c0.615,0.004,1.231,0.005,1.845,0.034
			c1.857,0.085,3.711,0.248,5.564,0.354c2.161,0.123,4.311,0.209,6.437,0.659c0.6,0.127,1.233,0.09,1.852,0.127
			c0.926,0.056,1.853,0.099,2.777,0.165c2.573,0.184,5.106,0.812,7.709,0.682c0.3-0.015,0.632,0.046,0.906,0.167
			c0.79,0.351,1.614,0.26,2.438,0.308c1.029,0.059,2.09,0.101,3.066,0.391c1.073,0.318,2.091,0.774,3.245,0.559
			c1.282,0.484,2.654,0.354,3.974,0.586c1.016,0.18,2.087,0.178,3.049,0.505c1.1,0.375,2.147,0.747,3.16,0.39
			c0.461,0.101,0.765,0.157,1.063,0.235c0.628,0.163,1.224-0.012,1.825-0.153c0.264-0.062,0.363-0.194,0.262-0.455
			C258.21,113.247,258.158,113.131,258.087,113.105z"/>
		<path fill="#150F0C" stroke="#150F0C" d="M428.13,108.041c-1.151-0.857-2.371-1.644-3.63-2.335
			c-1.707-0.938-3.339-2.063-5.33-2.386c-0.294-0.047-0.562-0.255-0.842-0.385c-2.816-1.304-5.75-2.286-8.727-3.134
			c-1.869-0.53-3.662-1.389-5.675-1.383c-0.389,0.001-0.779-0.252-1.169-0.394c-0.882-0.32-1.793-0.464-2.729-0.497
			c-1.137-0.041-2.312,0.039-3.395-0.234c-1.737-0.439-3.497-0.23-4.49-0.385c-2.695-0.118-4.656-0.312-6.595,0.111
			c-0.174,0.038-0.327,0.199-0.474,0.322c-0.183,0.153-0.091,0.595,0.146,0.817c0.613,0.577,1.28,0.946,2.165,1.067
			c2.348,0.32,4.681,0.749,7.014,1.158c2.329,0.41,4.554,1.331,6.94,1.479c0.101,0.006,0.192,0.076,0.293,0.099
			c3.217,0.707,6.34,1.762,9.522,2.596c1.194,0.313,2.339,0.832,3.537,1.13c2.106,0.523,4.146,1.221,6.13,2.1
			c0.278,0.123,0.604,0.136,0.899,0.229c1.28,0.396,2.557,0.796,3.805,1.308c1.136,0.465,2.358,0.717,3.548,1.049
			c0.07,0.021,0.224-0.066,0.258-0.141c0.077-0.168,0.205-0.431,0.136-0.527C429.057,109.123,428.684,108.455,428.13,108.041z"/>
		<path fill="#150F0C" stroke="#150F0C" d="M152.998,104.567c0.887-0.279,1.769-0.689,2.676-0.766
			c1.768-0.147,3.458-0.447,4.988-1.396c1.9-0.471,3.787-0.997,5.743-1.214c0.712-0.079,1.424-0.229,2.118-0.414
			c1.48-0.396,2.89-1.151,4.507-0.806c0.184,0.038,0.399-0.083,0.603-0.119c1.117-0.201,2.234-0.399,3.353-0.597
			c0.204-0.035,0.411-0.053,0.614-0.089c0.742-0.13,1.341-0.515,1.846-1.061c0.069-0.075,0.188-0.202,0.166-0.246
			c-0.072-0.146-0.178-0.353-0.307-0.383c-2.729-0.654-5.521-0.615-8.3-0.726c-2.288-0.09-4.487,0.632-6.753,0.743
			c-1.599,0.821-3.387,0.841-5.085,1.241c-1.5,0.354-2.957,0.884-4.512,0.988c-0.2,0.015-0.398,0.108-0.591,0.184
			c-3.18,1.215-6.376,2.385-9.528,3.678c-1.726,0.706-3.265,1.78-5.038,2.354c-0.71,0.229-1.267,0.627-1.785,1.168
			c-0.639,0.665-1.395,1.218-2.076,1.845c-0.377,0.347-0.712,0.74-1.05,1.127c-0.05,0.058-0.049,0.219-0.003,0.286
			c0.102,0.153,0.226,0.354,0.379,0.395c0.181,0.05,0.4-0.051,1.052-0.164c0.845,0.068,1.975-0.504,3.035-1.121
			c1.187-0.692,2.451-1.102,3.759-1.363c1.333-0.269,2.608-0.689,3.802-1.299c1.573-0.805,3.161-1.495,4.93-1.737
			C152.038,105.01,152.505,104.723,152.998,104.567z"/>
		<path fill="#150F0C" stroke="#150F0C" d="M401.349,90.482c-0.367,0.424-0.191,1.386,0.361,1.601
			c0.481,0.188,1.001,0.354,1.506,0.377c2.016,0.101,3.915,0.748,5.85,1.238c1.297,0.885,2.81,0.768,4.251,0.952
			c0.236,0.03,0.51-0.262,0.711-0.375c-0.463-2.053-1.722-3.34-3.608-4.112c-0.58-0.238-1.096-0.634-1.663-0.913
			c-0.273-0.136-0.606-0.254-0.898-0.233c-1.561,0.105-3.119,0.225-4.669,0.41C402.452,89.516,401.837,89.916,401.349,90.482z"/>
		<path fill="#150F0C" stroke="#150F0C" d="M159.43,88.409c-2.622,0.384-4.974,1.368-6.788,3.341
			c-0.449,0.488-0.555,1.059-0.54,1.673c0.012,0.483,0.634,0.973,1.073,0.808c0.965-0.362,1.919-0.714,2.974-0.796
			c0.496-0.038,0.992-0.274,1.453-0.492c1.507-0.708,3.014-1.283,4.763-1.049c0.759,0.104,1.365-0.383,1.769-1.03
			c0.264-0.396,0.113-1.104-0.286-1.336C162.489,88.737,161.025,88.176,159.43,88.409z"/>
		<path fill="#150F0C" stroke="#150F0C" d="M318.755,83.25c-0.273-0.136-0.606-0.254-0.898-0.233
			c-1.561,0.106-3.119,0.225-4.669,0.409c-0.736,0.091-1.352,0.49-1.84,1.057c-0.365,0.425-0.189,1.386,0.362,1.602
			c0.481,0.188,1.001,0.353,1.506,0.377c2.016,0.1,3.915,0.747,5.85,1.237c1.297,0.886,2.81,0.769,4.251,0.953
			c0.236,0.03,0.51-0.263,0.711-0.375c-0.463-2.052-1.722-3.34-3.608-4.112C319.838,83.925,319.322,83.53,318.755,83.25z"/>
		<path fill="#150F0C" stroke="#150F0C" d="M249.559,82.471c-2.638,0.262-5.032,1.135-6.935,3.023
			c-0.471,0.467-0.604,1.031-0.616,1.646c-0.011,0.483,0.589,1.001,1.034,0.855c0.98-0.316,1.949-0.624,3.008-0.656
			c0.496-0.017,1.003-0.229,1.474-0.425c1.538-0.639,3.069-1.144,4.806-0.827c0.754,0.138,1.382-0.319,1.815-0.947
			c0.282-0.383,0.164-1.097-0.224-1.348C252.599,82.941,251.164,82.312,249.559,82.471z"/>
		<path fill="#150F0C" stroke="#150F0C" d="M315.529,97.99c3.261,0.537,6.516,1.107,10.844,1.006
			c1.456-0.109,3.961,0.324,6.362-0.571c0.187-0.068,0.414-0.083,0.613-0.057c1.572,0.202,3.074-0.359,4.609-0.427
			c2.64-0.115,5.029-1.07,7.454-1.938c1.354-0.483,2.689-1.034,4.03-1.563c0.382-0.151,0.776-0.296,1.12-0.517
			c1.812-1.164,3.9-1.881,5.479-3.437c0.352-0.348,0.859-0.583,1.337-0.742c0.616-0.206,1.08-0.594,1.55-0.996
			c0.627-0.538,1.239-1.094,1.868-1.627c1.026-0.87,2.039-1.734,2.729-2.934c0.302-0.525,0.806-0.936,1.216-1.399
			c0.548-0.619,1.103-1.23,1.633-1.865c0.196-0.233,0.374-0.502,0.487-0.783c0.111-0.281,0.142-0.598,0.192-0.9
			c0.057-0.328-0.164-0.718-0.404-0.696c-0.194,0.018-0.467,0.046-0.56,0.174c-0.729,1.018-1.508,1.941-2.745,2.396
			c-0.358,0.132-0.65,0.503-0.923,0.811c-2.295,2.602-5.465,4.021-8.16,6.081c-2.495,0.981-4.822,2.358-7.4,3.148
			c-0.592,0.181-1.252,0.249-1.761,0.564c-1.266,0.788-2.819,0.687-4.079,1.423c-1.321,0.774-2.786,0.656-4.219,0.771
			c-0.204,0.016-0.419,0.049-0.602,0.133c-1.256,0.573-2.622,0.566-3.946,0.695c-2.056,0.201-4.123,0.309-6.188,0.367
			c-2.168,0.062-4.341,0.048-6.51,0.008c-0.919-0.018-1.821-0.356-2.763-0.051c-0.264,0.086-0.613-0.022-0.904-0.104
			c-2.583-0.729-3.67-0.946-5.741-0.943c-0.942,0.002-1.848-0.127-2.753-0.361c-1.309-0.338-2.644-0.479-3.993-0.41
			c-0.199,0.011-0.444,0.054-0.576,0.179c-0.117,0.113-0.18,0.38-0.137,0.543c0.047,0.178,0.217,0.39,0.384,0.453
			c0.769,0.296,1.555,0.537,2.33,0.813c1.063,0.38,2.104,0.864,3.192,1.146C310.895,96.969,313.182,97.603,315.529,97.99z"/>
		<path fill="#150F0C" stroke="#150F0C" d="M260.914,93.296c-1.131-0.213-2.25-0.105-3.354,0.211
			c-0.493,0.144-0.982,0.372-1.482,0.4c-1.03,0.059-2.033,0.167-3.052,0.395c-1.091,0.244-2.269,0.071-3.381,0.256
			c-1.928,0.317-3.896,0.035-5.82,0.592c-1.162,0.336-2.468-0.014-3.679,0.356c-0.18,0.056-0.405-0.028-0.605-0.065
			c-2.227-0.417-4.537-0.113-6.733-0.79c-0.19-0.06-0.411-0.027-0.616-0.033c-3.82-0.112-10.376-1.554-14.336-3.461
			c-0.648-0.312-1.308-0.685-2.002-0.808c-1.267-0.226-2.302-0.874-3.36-1.518c-0.881-0.535-1.767-1.062-2.649-1.598
			c-0.965-0.586-1.958-1.13-2.885-1.771c-1.866-1.291-3.714-2.609-5.525-3.977c-0.383-0.289-0.558-0.845-0.864-1.251
			c-0.339-0.451-0.823-0.573-1.371-0.503c-0.364,0.046-0.824,0.574-0.724,0.852c0.5,1.379,1.18,2.67,2.323,3.606
			c1.588,1.3,2.909,2.91,4.684,3.996c0.611,0.374,1.132,0.895,1.697,1.344c0.401,0.319,0.787,0.664,1.217,0.938
			c2.162,1.39,4.468,2.535,6.615,3.954c0.506,0.335,1.118,0.535,1.708,0.711c3.542,1.057,6.971,2.54,10.727,2.794
			c0.602,0.042,1.18,0.365,1.784,0.491c0.804,0.169,1.616,0.351,2.433,0.388c1.853,0.083,3.71,0.082,5.565,0.113
			c-0.001,0.014-0.001,0.026-0.001,0.039c1.959,0,3.919,0.013,5.879-0.009c0.513-0.005,1.051-0.026,1.531-0.184
			c1.097-0.357,2.234-0.512,3.355-0.49c1.178,0.021,2.166-0.68,3.311-0.661c1.391,0.023,2.653-0.468,3.817-1.118
			c0.837-0.468,1.687-0.713,2.604-0.899c1.21-0.247,2.371-0.679,3.415-1.358c0.119-0.077,0.17-0.373,0.133-0.54
			C261.236,93.541,261.06,93.323,260.914,93.296z"/>
		<path fill="#150F0C" stroke="#150F0C" d="M330.604,76.436c2.147,0.414,4.302,0.83,6.494,1.126
			c1.429,0.192,2.861,0.288,4.135,0.797c0.418,0.167,1.001,0.192,1.519,0.244c1.571,0.15,3.146,0.292,4.723,0.413
			c0.199,0.015,0.602-0.105,0.604-0.168c0.01-0.151-0.115-0.327-0.27-0.451c-0.238-0.196-0.496-0.44-0.834-0.518
			c-1.251-0.285-2.297-0.79-3.446-1.173c-1.268-0.422-2.562-0.87-4.079-0.923c-1.497-0.052-2.817-0.411-4.043-0.942
			c-0.991-0.43-2.077-0.722-3.341-0.682c-0.393,0.012-0.82,0.003-1.177-0.085c-2.23-0.549-4.662-0.665-6.894-1.149
			c-2.158-0.468-4.381-0.599-6.577-0.87c-0.644-0.08-1.334-0.075-1.938-0.216c-2.14-0.501-4.371-0.646-6.632-0.711
			c-1.852-0.053-3.738,0.031-5.556-0.15c-5.528-0.553-11.094-0.613-16.604-0.541c-4.054,0.203-8.04-0.012-12.021,0.283
			c-2.893,0.213-5.842,0.017-8.695,0.549c-0.248,0.046-0.531,0.038-0.793,0.023c-1.346-0.068-2.643,0.133-3.957,0.277
			c-2.228,0.246-4.459,0.525-6.706,0.644c-1.605,0.086-3.165,0.245-4.714,0.509c-0.641,0.108-1.293,0.292-1.933,0.286
			c-1.763-0.015-3.384,0.493-5.105,0.538c-1.93,0.05-3.611,0.547-5.326,1.018c-0.243,0.065-0.511,0.123-0.769,0.132
			c-2.018,0.07-3.848,0.613-5.764,0.938c-1.926,0.327-3.871,0.606-5.799,0.931c-0.77,0.129-1.643,0.216-2.245,0.507
			c-1.506,0.728-3.165,1.232-4.89,1.683c-0.049,0.014-0.045,0.152-0.023,0.228c0.021,0.067,0.076,0.17,0.156,0.186
			c1.041,0.215,2.035-0.271,3.124-0.077c1.039,0.185,2.054-0.041,3.087-0.295c1.353-0.333,2.789-0.584,4.223-0.709
			c3.294-0.288,6.543-0.703,9.777-1.191c1.678-0.254,3.377-0.496,5.084-0.617c3.438-0.246,6.85-0.578,10.252-0.978
			c1.83-0.214,3.688-0.343,5.537-0.467c2.249-0.15,4.503-0.267,6.756-0.384c2.25-0.116,4.503-0.293,6.751-0.292
			c1.474,0.001,2.929-0.042,4.36-0.212c2.506-0.297,4.998-0.293,7.51-0.163c1.842,0.096,3.688,0.273,5.545-0.05
			c0.496-0.086,1.054-0.072,1.572-0.05c3.432,0.146,6.873,0.145,10.31,0.229c1.192,0.03,2.389,0.057,3.571,0.146
			c2.752,0.203,5.442,0.687,8.268,0.553c0.644-0.029,1.307,0.122,1.956,0.204c0.646,0.081,1.293,0.271,1.928,0.249
			c1.505-0.055,2.879,0.252,4.308,0.422c1.56,0.185,3.13,0.377,4.71,0.447C328.078,75.99,329.334,76.191,330.604,76.436z"/>
		<path fill="#150F0C" stroke="#150F0C" d="M557.913,98.04c-0.003-0.235-0.319-0.556-0.541-0.572
			c-0.218-0.016-0.347,0.067-0.441,0.278c-0.64,1.407-0.911,2.909-1.111,4.429c-0.229,1.725-0.61,3.381-1.783,4.752
			c-0.303,0.354-0.446,0.841-0.693,1.245c-0.986,1.619-1.704,3.426-3.203,4.689c-0.139,0.118-0.211,0.315-0.311,0.479
			c-0.95,1.576-2.195,2.856-3.751,3.843c-0.643,0.404-1.266,0.853-1.846,1.344c-0.656,0.555-1.24,1.16-2.181,1.265
			c-0.32,0.036-0.648,0.382-0.894,0.658c-0.723,0.815-1.694,1.255-2.641,1.657c-1.48,0.631-3.038,1.08-4.561,1.617
			c-0.536,0.189-1.087,0.364-1.585,0.633c-0.604,0.328-1.211,0.491-1.905,0.473c-0.562-0.016-1.13,0.105-1.693,0.18
			c-1.216,0.162-2.428,0.364-3.646,0.493c-1.326,0.141-2.657,0.214-3.987,0.316c-1.192-0.44-2.449-0.115-3.669-0.323
			c-0.839-0.143-1.714-0.207-2.559-0.14c-0.779,0.062-1.506,0.012-2.246-0.223c-0.543-0.172-1.104-0.313-1.666-0.381
			c-1.316-0.151-2.559-0.827-3.931-0.581c-1.902-0.615-3.921-0.834-5.754-1.681c-1.478-0.682-2.993-1.218-4.578-1.591
			c-0.729-0.17-1.398-0.596-2.102-0.892c-0.786-0.328-1.51-0.825-2.416-0.832c-0.265-0.002-0.546-0.15-0.793-0.284
			c-0.922-0.5-1.821-1.045-2.751-1.53c-0.921-0.48-1.87-0.906-2.803-1.365c-1.792-0.883-3.631-1.68-5.229-2.918
			c-0.146-0.112-0.345-0.187-0.525-0.213c-1.181-0.174-2.077-0.906-3.032-1.526c-1.119-0.728-2.248-1.438-3.368-2.164
			c-0.72-0.466-1.425-0.957-2.151-1.409c-1.041-0.649-1.863-1.675-3.178-1.863c-0.17-0.024-0.336-0.176-0.476-0.3
			c-1.716-1.526-3.754-2.62-5.47-4.151c-0.711-0.633-1.491-1.188-2.237-1.78c-2.025-1.609-4.286-2.862-6.436-4.282
			c-1.271-0.84-2.697-1.452-3.928-2.345c-1.333-0.966-2.942-1.338-4.276-2.271c-0.464-0.324-1.033-0.493-1.512-0.8
			c-0.887-0.571-1.782-1.103-2.772-1.482c-1.059-0.409-2.068-0.943-3.13-1.34c-1.609-0.603-3.227-1.175-4.7-2.083
			c-0.241-0.148-0.5-0.322-0.77-0.36c-2.084-0.309-3.938-1.437-6.026-1.712c-2.669-1.101-5.541-1.322-8.316-1.966
			c-0.273-0.063-0.575-0.094-0.85-0.053c-1.158,0.172-2.277-0.039-3.396-0.298c-1.684-0.392-3.396-0.372-5.104-0.359
			c-0.15,0.001-0.322,0.176-0.439,0.31c-0.141,0.161,0.101,0.616,0.339,0.668c1.298,0.278,2.626,0.403,3.88,0.896
			c0.343,0.134,0.76,0.162,1.127,0.121c1.279-0.141,2.396,0.546,3.617,0.673c1.178,0.718,2.482,0.936,3.824,1.056
			c1.345,0.121,2.526,0.84,3.821,1.141c2.232,0.515,4.34,1.398,6.464,2.227c1.505,0.587,3.059,1.091,4.392,2.062
			c1.57,0.453,2.945,1.339,4.372,2.092c2.274,1.201,4.459,2.577,6.744,3.754c1.533,0.789,2.967,1.71,4.397,2.658
			c1.347,0.891,2.549,1.969,3.888,2.871c2.768,1.864,5.148,4.276,8.116,5.869c0.328,0.177,0.562,0.518,0.868,0.745
			c1.604,1.202,3.14,2.499,4.902,3.477c1.165,0.646,2.456,1.139,3.387,2.113c0.976,1.021,2.311,1.312,3.438,2.007
			c0.16,0.1,0.295,0.242,0.437,0.373c0.502,0.464,1.076,0.801,1.732,0.975c0.94,0.249,1.764,0.735,2.548,1.282
			c2.209,1.539,4.767,2.414,7.062,3.787c0.318,0.19,0.71,0.265,1.071,0.38c0.451,0.144,0.933,0.219,1.355,0.419
			c1.726,0.819,3.515,1.473,5.289,2.173c3.29,1.299,6.675,2.236,10.113,3.024c1.394,0.318,2.807,0.5,4.201,0.789
			c1.491,0.311,2.972,0.576,4.5,0.688c1.899,0.14,3.789,0.184,5.69,0.204c2.082,0.021,4.167,0.404,6.193-0.378
			c1.761,0.171,3.351-0.615,5.027-0.896c2.212-0.234,4.147-1.352,6.248-1.939c2.027-1.38,4.661-1.729,6.321-3.737
			c0.059-0.071,0.148-0.132,0.234-0.16c1.127-0.36,1.878-1.247,2.782-1.934c1.439-1.095,2.926-2.11,3.805-3.766
			c1.181-0.887,1.777-2.201,2.556-3.402c2.491-3.854,3.727-8.132,4.384-12.624c0.084-0.569,0.175-1.138,0.243-1.708
			C557.948,98.422,557.916,98.229,557.913,98.04z"/>
		<path fill="#150F0C" stroke="#150F0C" d="M186.949,69.282c-1.122,0.252-2.226,0.7-3.354,0.732
			c-1.469,0.043-2.393,0.731-3.68,0.913c-1.077,0.151-1.989,0.464-2.752,0.974c-0.171,0.114-0.458,0.215-0.698,0.223
			c-1.517,0.051-2.808,0.429-4.038,0.981c-0.393,0.176-1.026,0.126-1.536,0.213c-0.24,0.041-0.51,0.131-0.652,0.253
			c-0.14,0.118-0.163,0.303-0.178,0.459c0.001,0.051,0.164,0.143,0.271,0.157c0.371,0.046,0.795,0.149,1.121,0.082
			c2.267-0.479,4.555-0.899,6.865-1.285c3.609-0.604,7.226-1.209,10.76-1.966c2.403-0.517,4.847-0.888,7.289-1.284
			c1.417-0.231,2.906-0.294,4.232-0.745c2.263-0.165,4.444-0.5,6.496-1.171c0.45-0.148,1.042-0.166,1.566-0.165
			c2.821,0.006,5.507-0.533,8.227-0.901c4.557-0.616,9.082-1.317,13.748-1.526c1.176-0.054,2.332-0.322,3.502-0.483
			c0.777-0.106,1.586-0.319,2.334-0.263c1.227,0.092,2.336-0.059,3.521-0.222c3.117-0.43,6.362-0.299,9.46-0.871
			c0.251-0.047,0.528-0.036,0.793-0.049c0.132-0.007,0.267-0.008,0.399-0.002c1.986,0.079,3.969,0.209,5.905-0.298
			c0.341-0.089,0.79,0,1.188-0.009c1.062-0.025,2.125-0.047,3.184-0.091c2.521-0.105,5.04-0.312,7.568-0.186
			c1.355,0.068,2.623-0.3,3.939-0.34c1.316-0.042,2.683,0.227,3.953,0.079c2.531-0.291,5.038-0.136,7.534-0.081
			c3.188,0.07,6.364,0.137,9.558,0.012c0.782-0.03,1.577,0.062,2.363,0.112c0.788,0.05,1.571,0.146,2.361,0.175
			c5.562,0.207,11.152,0.189,16.675,0.714c0.392,0.038,0.795,0.044,1.193,0.051c2.134,0.032,4.212,0.298,6.271,0.596
			c0.783,0.114,1.526,0.23,2.342,0.177c1.746-0.119,3.435,0.048,5.097,0.385c0.741,0.151,1.541,0.201,2.318,0.282
			c2.605,0.274,5.314,0.197,7.823,0.783c1.138,0.266,2.263,0.417,3.484,0.409c0.638-0.003,1.32,0.118,1.897,0.293
			c0.976,0.295,1.957,0.476,3.05,0.485c1.064,0.011,2.103,0.108,3.071,0.439c0.444,0.153,1.011,0.224,1.526,0.229
			c1.764,0.018,3.376,0.375,5.021,0.701c1.495,0.295,2.933,0.783,4.605,0.667c0.374-0.025,0.823,0.04,1.149,0.158
			c1.521,0.55,3.282,0.62,4.896,0.977c1.486,0.33,3.121,0.373,4.491,0.948c0.398,0.168,1.024,0.121,1.546,0.179
			c0.521,0.057,1.104,0.045,1.549,0.194c1.766,0.592,3.76,0.799,5.559,1.309c1.94,0.546,3.987,0.841,6.021,1.182
			c0.635,0.106,1.341,0.169,1.859,0.393c1.462,0.624,3.196,0.743,4.804,1.092c0.17,0.036,0.46-0.107,0.671-0.191
			c0.036-0.016-0.024-0.154-0.073-0.227c-0.434-0.648-1.132-1.183-2.251-1.283c-1.361-0.123-2.427-0.528-3.545-0.979
			c-0.979-0.395-2.173-0.578-3.263-0.87c-0.848-0.227-1.673-0.482-2.516-0.718c-0.718-0.2-1.437-0.405-2.173-0.578
			c-1.359-0.32-2.732-0.618-4.1-0.93c-3.846-0.876-7.682-1.771-11.541-2.624c-1.116-0.246-2.382-0.266-3.44-0.575
			c-3.985-1.161-8.383-1.479-12.488-2.389c-0.364-0.081-0.782-0.098-1.178-0.096c-1.492,0.006-2.864-0.257-4.244-0.581
			c-1.604-0.377-3.225-0.784-4.983-0.791c-1.747-0.006-3.416-0.25-5.081-0.527c-3.073-0.512-6.204-0.792-9.395-0.798
			c-0.697-0.001-1.284-0.128-1.893-0.299c-2.077-0.581-4.219-0.87-6.527-0.57c-0.91,0.118-1.825,0.017-2.758-0.085
			c-2.475-0.271-4.979-0.439-7.474-0.648c-2.562,0.323-5.005-0.326-7.521-0.296c-1.327,0.018-2.631,0.056-3.96-0.066
			c-1.293-0.119-2.643,0.003-3.947-0.074c-2.109-0.125-4.229-0.142-6.339-0.151c-3.854-0.015-7.712,0.099-12.933,0.181
			c-3.014,0.112-7.414,0.149-11.764,0.482c-3.299,0.252-6.666,0.08-9.912,0.692c-0.492,0.093-1.056,0.032-1.586,0.046
			c-1.998,0.05-3.979,0.161-5.936,0.471c-0.899,0.144-1.844,0.162-2.768,0.242c-1.053,0.09-2.108,0.179-3.159,0.28
			c-1.315,0.128-2.63,0.266-3.944,0.403c-1.443,0.153-2.881,0.331-4.329,0.465c-1.458,0.134-2.836,0.427-4.241,0.697
			c-1.514,0.29-3.139,0.291-4.686,0.586c-1.912,0.366-3.849,0.77-5.814,0.904c-1.888,0.13-3.624,0.513-5.417,0.826
			c-2.3,0.402-4.668,0.649-6.851,1.319c-0.461,0.143-1.038,0.137-1.565,0.183c-2.126,0.186-4.176,0.536-6.151,1.086
			c-0.853,0.238-1.762,0.391-2.646,0.583C189.467,68.728,188.206,68.999,186.949,69.282z"/>
		<path fill="#150F0C" stroke="#150F0C" d="M141.414,84.876c1.291-0.3,2.469-1.02,3.811-1.141c1.338-0.12,2.641-0.338,3.813-1.059
			c1.219-0.126,2.333-0.813,3.608-0.673c0.367,0.041,0.783,0.015,1.124-0.121c1.25-0.493,2.576-0.618,3.87-0.896
			c0.239-0.052,0.479-0.508,0.338-0.669c-0.117-0.134-0.289-0.31-0.438-0.311c-1.705-0.013-3.413-0.032-5.092,0.359
			c-1.116,0.26-2.231,0.471-3.387,0.298c-0.273-0.041-0.574-0.01-0.847,0.054c-2.768,0.646-5.633,0.865-8.293,1.97
			c-2.085,0.274-3.934,1.403-6.011,1.714c-0.268,0.039-0.526,0.212-0.767,0.361c-1.471,0.907-3.082,1.482-4.688,2.085
			c-1.059,0.396-2.067,0.933-3.122,1.341c-0.987,0.382-1.882,0.913-2.766,1.483c-0.477,0.31-1.045,0.478-1.507,0.803
			c-1.331,0.934-2.936,1.306-4.266,2.272c-1.227,0.894-2.648,1.506-3.917,2.347c-2.143,1.423-4.397,2.677-6.417,4.288
			c-0.744,0.596-1.523,1.149-2.231,1.783c-1.711,1.532-3.744,2.628-5.455,4.156c-0.14,0.124-0.305,0.276-0.475,0.301
			c-1.31,0.188-2.129,1.216-3.168,1.864c-0.726,0.454-1.428,0.946-2.146,1.413c-1.117,0.725-2.243,1.438-3.359,2.166
			c-0.953,0.622-1.847,1.354-3.024,1.527c-0.181,0.026-0.379,0.102-0.524,0.215c-1.595,1.239-3.428,2.038-5.216,2.922
			c-0.929,0.459-1.876,0.885-2.794,1.365c-0.926,0.486-1.824,1.031-2.744,1.532c-0.246,0.136-0.526,0.284-0.791,0.286
			c-0.904,0.006-1.625,0.504-2.41,0.833c-0.7,0.295-1.368,0.722-2.094,0.894c-1.582,0.373-3.093,0.908-4.566,1.592
			c-1.828,0.848-3.841,1.065-5.738,1.683c-1.368-0.246-2.607,0.431-3.92,0.582c-0.561,0.066-1.12,0.21-1.661,0.382
			c-0.738,0.233-1.463,0.284-2.24,0.223c-0.842-0.067-1.715-0.003-2.552,0.14c-1.215,0.209-2.469-0.117-3.659,0.323
			c-1.326-0.104-2.654-0.178-3.976-0.316c-1.216-0.13-2.425-0.332-3.637-0.494c-0.562-0.075-1.128-0.194-1.69-0.179
			c-0.692,0.018-1.296-0.146-1.9-0.474c-0.497-0.27-1.045-0.443-1.58-0.635c-1.518-0.538-3.071-0.986-4.548-1.619
			c-0.943-0.403-1.912-0.844-2.633-1.659c-0.243-0.276-0.57-0.622-0.891-0.658c-0.937-0.105-1.52-0.711-2.174-1.267
			c-0.578-0.492-1.2-0.939-1.84-1.347c-1.552-0.985-2.793-2.269-3.742-3.847c-0.099-0.164-0.171-0.363-0.31-0.48
			c-1.495-1.267-2.209-3.073-3.194-4.694c-0.247-0.406-0.39-0.895-0.692-1.247c-1.17-1.374-1.55-3.033-1.778-4.759
			c-0.201-1.521-0.472-3.024-1.109-4.436c-0.095-0.21-0.224-0.294-0.441-0.278c-0.221,0.019-0.537,0.337-0.539,0.573
			c-0.002,0.189-0.035,0.382-0.012,0.568c0.07,0.57,0.16,1.14,0.243,1.71c0.657,4.498,1.887,8.782,4.372,12.64
			c0.775,1.203,1.372,2.521,2.548,3.408c0.877,1.657,2.358,2.674,3.794,3.77c0.902,0.688,1.652,1.574,2.775,1.938
			c0.086,0.028,0.175,0.089,0.234,0.159c1.656,2.013,4.282,2.36,6.305,3.743c2.094,0.589,4.025,1.707,6.23,1.942
			c1.673,0.279,3.259,1.065,5.015,0.896c2.021,0.784,4.1,0.4,6.176,0.379c1.897-0.021,3.781-0.064,5.675-0.204
			c1.525-0.113,3-0.38,4.489-0.69c1.391-0.29,2.8-0.471,4.19-0.79c3.429-0.789,6.805-1.728,10.085-3.027
			c1.77-0.701,3.554-1.354,5.275-2.175c0.422-0.202,0.902-0.276,1.352-0.421c0.361-0.115,0.751-0.189,1.069-0.381
			c2.291-1.375,4.841-2.252,7.044-3.792c0.782-0.548,1.603-1.035,2.541-1.284c0.654-0.174,1.228-0.511,1.729-0.976
			c0.14-0.13,0.274-0.273,0.435-0.373c1.125-0.695,2.457-0.986,3.43-2.01c0.928-0.977,2.214-1.469,3.377-2.116
			c1.758-0.978,3.291-2.276,4.89-3.479c0.304-0.229,0.539-0.57,0.865-0.746c2.959-1.596,5.334-4.01,8.094-5.877
			c1.336-0.903,2.535-1.982,3.877-2.875c1.427-0.949,2.856-1.871,4.385-2.661c2.279-1.18,4.458-2.558,6.726-3.761
			c1.423-0.754,2.794-1.639,4.36-2.094c1.33-0.972,2.879-1.476,4.38-2.063C137.086,86.277,139.187,85.392,141.414,84.876z"/>
		<path fill="#150F0C" stroke="#150F0C" d="M424.426,138.413c-0.52,0-0.961,0.188-1.324,0.562c-0.362,0.374-0.545,0.812-0.545,1.316
			s0.181,0.948,0.539,1.33c0.359,0.384,0.801,0.574,1.324,0.574s0.975-0.192,1.354-0.579c0.379-0.388,0.567-0.827,0.567-1.319
			c0-0.491-0.188-0.929-0.567-1.312C425.395,138.604,424.945,138.413,424.426,138.413z"/>
		<path fill="#150F0C" stroke="#150F0C" d="M123.551,138.413c-0.52,0-0.961,0.188-1.324,0.562s-0.545,0.812-0.545,1.316
			s0.18,0.948,0.539,1.33c0.359,0.384,0.801,0.574,1.324,0.574s0.975-0.192,1.354-0.579c0.379-0.388,0.568-0.827,0.568-1.319
			c0-0.491-0.189-0.929-0.568-1.312C124.52,138.604,124.07,138.413,123.551,138.413z"/>
		<path fill="#150F0C" stroke="#150F0C" d="M297.354,108.366c-1.484,0.294-3,0.836-3.908,2.041c-0.768,0.974-1.094,2.639-0.643,4.06
			c0.516,1.737,2.229,2.399,4.014,1.722c1.602-0.657,1.83-2.145,1.145-3.605c-0.238-0.513-0.855-0.733-1.381-0.498
			c-0.527,0.236-0.766,0.85-0.528,1.366c0.062,0.129,0.253,0.662,0.171,0.776c-0.015,0.021-0.084,0.057-0.17,0.101
			c-0.121,0.062-0.365,0.113-0.365,0.113c-0.541,0.136-0.875-0.025-1.082-0.584c-0.131-0.312-0.172-0.795-0.15-1.191
			c0.13-1.335,0.844-2.154,3.25-3.061c3.868-1.521,5.402,3.694,3.617,6.577c-4.311,7.011-16.162,4.226-22.772,9.469
			c-4.729,3.733-3.768,9.458-1.541,12.329c3.141,3.896,13.503,3.382,13.121-2.645c-0.12-1.342-0.638-2.67-1.797-3.625
			c-1.467-1.188-3.524-0.544-4.372,0.514c-0.828,0.991-0.329,2.455,0.922,2.798c0.87,0.257,1.984-0.146,2.651-1.463
			c0.146-0.291,0.222-0.545,0.104-0.906c1.264,0.816,2.651,3.849,0.342,5.677c-1.653,1.344-5.185,1.784-6.662,0.652
			c-0.896-0.686-1.437-1.846-1.829-2.634c-1.166-2.171-1.371-5.52,1.472-7.729c1.975-1.536,4.439-2.177,5.957-2.654
			c1.051-0.336,1.844-0.428,2.889-0.102c1.896,0.552,3.627,2.706,4.231,4.745c0.948,3.235,0.01,12.482-9.952,13.48
			c-4.744,0.431-8.025-1.146-10.328-4.145c-2.906-3.737-3.525-6.938-3.561-7.175c0.002,0.018,0.002,0.05,0.004,0.109
			c-0.301-3.089-0.236-3.467-0.236-3.467c-0.107-1.458-0.23-2.925,0.406-4.157c0.66-1.395,3.949-3.908,5.57-3.66
			c0.67,0.102,0.834-0.895,0.166-0.996c-1.787-0.381-3.264-1.399-4.325-3.285c-0.011-0.013,0.067,0.068,0.03,0.025
			c-0.588-1.135-0.58-1.431,0.217-2.48c0,0,0.429-0.545,0.428-0.543c-0.003,0.008,0.035-0.058,0,0.011
			c0.299-0.556,1.002-1.111,1.449-1.555c0.608-0.606,1.262-1.178,1.989-1.644c1.392-0.891,3.388-1.623,4.96-0.8
			c0.959,0.503,2.969,2.372,1.324,3.317c-0.227,0.13-0.414,0.064-0.535,0.312c-0.09,0.185-0.103,0.458-0.041,0.666
			c0.207,0.716,1.326,0.617,2.053,0.416c0.763-0.211,2.097-1.663,2.213-2.752c1.217-4.725-6.159-10.27-13.271-5.191
			c-1.837,1.356-3.187,3.161-3.921,4.887c-1.252,2.947-1.169,4.979,1.229,7.039c-0.031-0.033,0.051,0.052,0.059,0.055
			c1.319,0.837,1.967,1.221,3.789,1.9c-1.565,0.597-3.535,1.695-5.062,2.916c-2.216,1.871-3.398,4.651-4.049,7.391
			c-0.341,1.441-0.407,3.016-0.001,4.442c0.177,0.622,0.527,1.147,0.697,1.763c0.142,0.516,0.307,1.024,0.494,1.525
			c0.785,2.104,1.953,4.075,3.463,5.753c2.811,3.126,6.74,5.003,10.994,5.238c0.297,0.017,0.344,0.013,0.344,0.013
			c10.239-0.02,16.974-6.904,16.577-16.151c-0.143-3.456-1.413-6.333-4.152-8.479c9.741-1.02,12.633-6.377,9.824-13.521
			C301.866,109.26,300.108,107.729,297.354,108.366z"/>
		<path fill="#150F0C" stroke="#150F0C" d="M502.118,97.898c0.12,0.053,0.241,0.105,0.36,0.159c-0.119,0.279-0.24,0.561-0.36,0.84
			c3.817,1.683,7.639,3.362,11.459,5.045c7.04,3.36,14.084,6.722,21.123,10.083c2.042-3.419,4.085-6.838,6.126-10.255
			c-0.152-0.079-0.305-0.158-0.455-0.237c0.15-0.255,0.304-0.509,0.455-0.763c-1.521-0.793-3.037-1.587-4.557-2.379
			c-2.08,1.584-3.582,3.81-6.518,4.559c-3.524,0.897-8.485-2.92-11.628-4.075c2.334-5.165,4.669-10.332,7.004-15.498
			c3.519,0.823,7.187,2.438,7.461,6.396c-0.026,0.396-0.073,0.805-0.164,1.243c0.048,0.021,0.097,0.042,0.145,0.062
			c-0.032,0.301-0.076,0.61-0.145,0.937c1.38,0.606,2.763,1.215,4.145,1.821c1.948-3.974,3.9-7.95,5.854-11.921
			c-0.132-0.064-0.265-0.129-0.396-0.193c0.132-0.271,0.265-0.539,0.396-0.809c-1.335-0.652-2.67-1.306-4.003-1.96
			c-6.015,4.612-5.021,1.671-11.157,0.108c2.031-4.479,4.064-8.956,6.096-13.434c1.581-0.313,3.773,1.488,5.108,2.104
			c5.576,2.567,7.712,3.037,7.842,9.805c-0.002,0.162,0.002,0.307-0.001,0.476h0.001c0.002,0.324,0.006,0.646-0.001,0.999
			c1.61,0.746,3.222,1.493,4.831,2.24c1.627-3.142,3.253-6.283,4.879-9.425c-0.138-0.067-0.275-0.134-0.414-0.201
			c0.136-0.265,0.274-0.53,0.412-0.798c-2.116-1.026-4.233-2.053-6.352-3.08c-5.545-2.716-11.227-5.279-16.981-7.981
			c-3.781-1.775-8.212-4.72-12.565-5.465c-0.279,0.646-0.56,1.295-0.836,1.94c0.087,0.104,0.188,0.205,0.299,0.307
			c-0.1,0.231-0.2,0.463-0.299,0.693c0.723,0.858,2.339,1.613,2.642,3.12c-0.012,0.066-0.017,0.128-0.032,0.196
			c-3.812,8.643-7.627,17.287-11.439,25.927c-1.766,4.038-1.837,7.544-7.497,7.472C502.675,96.604,502.395,97.25,502.118,97.898z"/>
		<path fill="#150F0C" stroke="#150F0C" d="M472.242,44.189c-0.12,1.457-0.712,3.088-1.337,4.841
			c-2.61,7.49-5.221,14.979-7.831,22.47c-1.065,2.937-1.471,8.165-6.112,6.921c-0.542,0.485-0.855,1.476-0.977,2.355
			c0.068,0.022,0.138,0.046,0.207,0.07c-0.092,0.308-0.165,0.622-0.207,0.931c5.983,2.014,11.973,4.028,17.956,6.042
			c0.278-0.695,0.56-1.387,0.839-2.08c-0.112-0.072-0.211-0.148-0.313-0.224c0.104-0.26,0.209-0.519,0.313-0.777
			c-1.535-0.986-2.182-2.305-2.291-3.803c0.269-3.937,3.456-8.808,4.152-12.273c10.652,1.215,5.18,15.599,9.04,23.368
			c0.809,1.306,10.934,4.719,12.979,5.604c0.326-0.691,0.652-1.386,0.976-2.077c-0.11-0.119-0.201-0.232-0.305-0.352
			c0.102-0.217,0.204-0.434,0.305-0.649c-4.915-5.264-2.604-8.46-4.501-16.129c-0.582-2.348-1.921-3.834-2.746-5.704
			c-0.235-0.24-0.475-0.479-0.711-0.72c3.941-0.833,7.179-0.393,9.994-2.271c3.066-2.048,4.858-6.162,4.694-10.193
			c0.098-2.537-0.548-5.111-2.142-7.186c-4.709-6.135-14.876-8.145-22.778-11.061c-3.684-1.265-7.368-2.53-11.051-3.793
			c-0.232,0.739-0.467,1.48-0.7,2.22c0.096,0.053,0.175,0.108,0.265,0.162c-0.089,0.279-0.176,0.56-0.265,0.837
			C471.414,41.652,472.113,42.827,472.242,44.189z M484.47,47.441c5.38,1.064,10.308,3.684,10.591,8.741
			c-0.073,1.182-0.365,2.475-0.96,3.908c-0.845,2.031-1.86,4.045-3.616,5.124c-3.854,2.368-8.426-0.271-11.975-1.083
			C480.496,58.57,482.484,53.005,484.47,47.441z"/>
		<path fill="#150F0C" stroke="#150F0C" d="M438.072,62.927c-1.218,4.034-0.935,8.003-6.254,8.031
			c-0.188,0.739-0.374,1.48-0.562,2.22c0.078,0.023,0.157,0.047,0.235,0.07c-0.078,0.311-0.156,0.62-0.235,0.93
			c6.032,1.783,12.067,3.566,18.1,5.349c0.232-0.693,0.467-1.386,0.698-2.08c-0.08-0.083-0.169-0.159-0.257-0.235
			c0.086-0.255,0.172-0.51,0.257-0.764c-0.914-0.951-2.403-1.426-2.755-2.928c-0.043-0.187-0.07-0.376-0.088-0.57
			c0.203-2.324,1.656-4.9,2.193-6.478c1.915-6.148,3.828-12.3,5.742-18.448c1.55-4.557,1.104-9.709,7.366-9.694
			c0.235-0.693,0.468-1.388,0.701-2.08c-0.102-0.032-0.203-0.063-0.305-0.096c0.102-0.302,0.203-0.604,0.305-0.905
			c-1.935-0.608-3.869-1.218-5.802-1.828c-4.604-1.359-9.211-2.721-13.815-4.081c-0.187,0.603-0.375,1.203-0.562,1.803
			c0.046,0.146,0.111,0.274,0.188,0.397c-0.062,0.201-0.125,0.402-0.188,0.604c0.479,1.523,2.71,1.639,3.043,3.448
			c-0.008,0.051-0.008,0.095-0.019,0.146C443.398,44.799,440.736,53.863,438.072,62.927z"/>
		<path fill="#150F0C" stroke="#150F0C" d="M395.325,30.847c3.01-2.621,3.018-7.227,9.288-5.937
			c1.151,0.235,2.304,0.472,3.456,0.708c0.065,0.022,0.134,0.045,0.2,0.068c-2.038,8.894-4.076,17.792-6.116,26.686
			c-1.203,4.771-0.386,9.712-6.537,9.696c-0.143,0.555-0.281,1.11-0.421,1.665c-0.002,0.232-0.002,0.464-0.004,0.695
			c0.025,0.003,0.053,0.007,0.079,0.011c-0.025,0.099-0.052,0.197-0.075,0.296c-0.002,0.23-0.002,0.462-0.004,0.695
			c6.296,0.752,13.394,2.346,19.068,4.379c0.233-0.603,0.467-1.203,0.699-1.806c-0.053-0.161-0.136-0.294-0.224-0.423
			c0.073-0.191,0.148-0.384,0.224-0.577c-0.519-1.572-2.88-1.43-3.307-3.345c-0.064-0.289-0.088-0.583-0.108-0.879
			c0.153-2.422,1.335-4.917,1.802-6.725c1.498-6.151,2.998-12.305,4.496-18.455c0.737-2.721,0.749-7.284,2.388-9.296
			c5.849,1.81,8.971,2.391,8.812,10.171c1.703,0.425,3.409,0.848,5.112,1.271c0.982-3.513,1.964-7.029,2.945-10.543
			c-0.023-0.098-0.099-0.195-0.197-0.292c0.065-0.236,0.132-0.473,0.197-0.709c-0.343-1.355-8.451-2.707-10.36-3.232
			c-7.591-2.1-15.489-3.462-23.492-5.368c-3.547-0.708-7.094-1.417-10.641-2.125c-0.753,3.793-1.507,7.586-2.258,11.38
			c0.063,0.013,0.127,0.024,0.19,0.038c-0.063,0.319-0.127,0.641-0.19,0.961C392.006,30.186,393.665,30.518,395.325,30.847z"/>
		<path fill="#150F0C" stroke="#150F0C" d="M318.201,51.216c-0.048,0.741-0.098,1.48-0.147,2.223
			c0.021,0.002,0.044,0.004,0.066,0.005c-0.022,0.332-0.044,0.664-0.066,0.994c5.117,0.437,10.233,0.873,15.35,1.31
			c0.048-0.739,0.097-1.479,0.146-2.222c-0.022-0.005-0.043-0.012-0.064-0.018c0.021-0.327,0.043-0.655,0.064-0.981
			c-2.256-0.51-3.154-1.644-3.313-3.049c0.249-2.594,2.259-5.762,2.942-7.759c5.253,0.576,10.508,1.152,15.763,1.729
			c0.403,1.772,0.991,4.114,1.076,6.214c-0.116,2.38-1.109,4.229-4.164,4.163c-0.095,0.786-0.189,1.572-0.284,2.359
			c0.04,0.005,0.079,0.011,0.118,0.017c-0.04,0.328-0.079,0.655-0.118,0.983c6.495,0.903,12.993,1.81,19.49,2.714
			c0.046,0,0.094,0,0.139,0c0.142-0.786,0.282-1.572,0.425-2.359c-0.062-0.015-0.111-0.04-0.17-0.056
			c0.057-0.314,0.113-0.629,0.17-0.943c-4.486-1.095-3.983-6.935-4.936-11.549c-2.171-11.209-4.341-22.425-6.51-33.636
			c-3.503-0.382-7.007-0.768-10.509-1.15c-5.478,9.931-10.958,19.865-16.436,29.796C324.602,44.573,323.794,49.544,318.201,51.216z
			 M337.778,32.986c2.182-4.158,4.365-8.316,6.547-12.476c0.92,0.839,0.749,3.049,1.091,4.449c0.891,4.433,1.781,8.865,2.674,13.299
			c-4.201-0.421-8.401-0.841-12.602-1.26C335.973,35.646,337.175,34.114,337.778,32.986z"/>
		<path fill="#150F0C" stroke="#150F0C" d="M287.21,19.182c2.424-6.409,3.062-7.612,11.607-7.456
			c-0.346,9.107-0.692,18.22-1.039,27.329c-0.129,0.835-0.139,1.734-0.117,2.646c-0.02,1.104,0.047,2.245,0.07,3.35
			c-0.026,1.068-0.15,2.065-0.539,2.893c-0.596,1.265-2.375,1.854-4.157,1.929c-0.002,0.786-0.007,1.574-0.009,2.361
			c0.002,0,0.002,0,0.004,0c-0.002,0.333-0.002,0.666-0.004,1c6.546,0.303,13.093,0.604,19.637,0.908
			c0.096-0.693,0.189-1.389,0.286-2.082c-0.04-0.034-0.085-0.056-0.126-0.086c0.042-0.306,0.084-0.609,0.126-0.914
			c-1.3-1.094-3.164-0.792-3.864-2.518c-0.297-0.729-0.422-1.793-0.446-2.998c0.062-2.805,0.545-6.07,0.769-7.806
			c0.445-8.47,0.895-16.941,1.341-25.411c3.562,0.027,7.042,0.32,8.567,2.396c3.048,4.141-0.318,6.351,7.306,6.417
			c0.337-3.609,0.673-7.221,1.011-10.829c0-0.231,0.002-0.465,0.002-0.695c-0.01-0.001-0.021-0.002-0.03-0.003
			c0.011-0.102,0.02-0.202,0.028-0.303c0-0.231,0.002-0.462,0.002-0.693c-14.81-1.469-29.601-2.148-45.496-2.121
			c-0.016,3.842-0.029,7.687-0.045,11.528c0.001,0,0.004,0,0.004,0c0,0.333-0.003,0.667-0.004,1
			C283.799,19.075,285.504,19.127,287.21,19.182z"/>
		<path fill="#150F0C" stroke="#150F0C" d="M248.169,28.334c5.105,4.304,17.636,6.65,18.895,13.961
			c0.042,0.245,0.055,0.479,0.072,0.713c-0.359,4.545-5.556,6.853-10.474,5.609c-3.427-0.867-5.91-3.716-6.473-7.387
			c-1.659,0.041-3.32,0.079-4.979,0.12c0.012,0.333,0.024,0.666,0.037,0.998c-0.012,0-0.024,0-0.037,0.001
			c0.126,3.427,0.25,6.854,0.376,10.279c2.738,0.896,5.847,0.304,9.124,0.867c11.265,1.94,23.735-3.146,23.298-13.622
			c0.054-1.359-0.115-2.817-0.548-4.372c-2.917-10.478-19.636-10.059-21.645-18.139c-0.087-0.352-0.144-0.69-0.173-1.021
			c0.364-4.23,5.607-6.315,10.298-5.164c3.157,0.776,5.575,3.43,6.058,6.83c1.752,0.054,3.504,0.107,5.256,0.159
			c0.012-3.24,0.025-6.481,0.037-9.721c-0.001,0-0.002,0-0.004,0c0.001-0.333,0.003-0.667,0.004-1
			c-4.24-0.938-8.951-1.492-14.103-1.444c-2.955,1.197-6.698,0.601-9.411,1.63c-4.478,1.703-9.48,5.474-9.21,11.344
			c-0.079,1.372,0.12,2.862,0.715,4.485C245.978,25.358,246.774,27.158,248.169,28.334z"/>
		<path fill="#150F0C" stroke="#150F0C" d="M198.431,14.529c1.447,0.502,3.215,0.538,4.005,1.682
			c1.333,1.934,0.887,5.633,1.351,8.338c0.85,6.576,1.702,13.156,2.551,19.731c0.291,1.669,0.594,3.415,0.653,5.015
			c-0.087,2.293-0.852,4.15-3.183,4.811c0.018,0.327,0.036,0.652,0.053,0.979c-0.019,0.005-0.034,0.015-0.053,0.021
			c0.043,0.788,0.085,1.576,0.128,2.36c3.275-0.403,6.55-0.807,9.826-1.211c8.438-0.708,16.879-1.417,25.318-2.125
			c-0.002-0.333-0.005-0.666-0.008-0.999c0.003,0,0.005,0,0.008,0c-0.029-4.026-0.06-8.055-0.091-12.083
			c-8.84,0.257-4.045,4.587-8.743,8.021c-2.352,1.719-8.167,1.572-11.626,1.898c-0.047,0-0.091,0-0.138,0
			c-0.589-5.604-1.178-11.208-1.767-16.812c4.927-1.463,9.232-0.623,10.257,3.678c1.43-0.041,2.858-0.082,4.288-0.122
			c-0.023-0.333-0.046-0.665-0.069-0.998c0.023,0,0.046-0.001,0.069-0.002c-0.306-4.397-0.611-8.799-0.917-13.197
			c-0.778-0.729-3.194-0.072-4.426-0.019c-0.512,5.008-4.302,5.759-9.704,5.658c-0.532-4.897-1.067-9.796-1.599-14.693
			c0-0.002,0-0.004,0-0.007c8.235-0.902,14.938-2.627,17.269,5.066c1.752,0.006,3.504,0.014,5.256,0.02
			c-0.016-0.333-0.032-0.667-0.048-1c0.016,0,0.032,0,0.048,0c-0.171-3.563-0.341-7.131-0.512-10.697
			c-0.093-0.046-0.184-0.093-0.277-0.14c-5.394,0.396-10.791,0.792-16.187,1.188c-7.286,0.805-14.576,1.609-21.862,2.416
			c-0.046,0.093-0.093,0.184-0.14,0.276c0.036,0.261,0.072,0.522,0.109,0.783c-0.036,0.072-0.072,0.145-0.109,0.216
			C198.25,13.231,198.342,13.881,198.431,14.529z"/>
		<path fill="#150F0C" stroke="#150F0C" d="M144.87,23.488c1.424,1.343,3.596,0.313,4.556,2.241
			c0.499,2.314,0.997,4.634,1.496,6.948c3.155,12.771,2.796,32.901,21.045,30.082c2.579-0.397,5.218-0.761,7.474-1.359
			c3.852-1.022,7.544-2.249,9.7-4.961c2.146-2.702,2.848-6.603,2.826-10.86c0.153-6.582-1.64-14.219-2.712-19.722
			c-0.367-1.882-0.763-3.808-0.837-5.536c0.095-2.219,0.914-3.992,3.37-4.706c-0.036-0.32-0.073-0.64-0.109-0.959
			c0.039-0.012,0.07-0.029,0.109-0.04c-0.089-0.788-0.178-1.576-0.268-2.361c-0.185-0.002-0.369-0.002-0.553-0.004
			c-5.396,0.813-10.794,1.626-16.19,2.439c-0.046,0.091-0.093,0.184-0.14,0.274c0.047,0.242,0.094,0.482,0.141,0.725
			c0,0,0,0-0.001,0c-0.046,0.093-0.093,0.184-0.14,0.276c0.136,0.694,0.27,1.39,0.406,2.084c1.271,1.266,3.424-0.39,4.418,2.239
			c0.495,3.011,0.992,6.022,1.486,9.034c0.751,3.56,2.87,13.128,2.979,19.637c-0.032,1.776-0.245,3.26-0.722,4.231
			c-0.947,1.929-3.021,3.118-5.27,3.729c-13.286,3.621-12.923-16.403-15.118-25.612c-0.492-2.068-1.153-4.569-1.249-6.801
			c0.096-2.135,0.871-3.893,3.096-4.553c-0.044-0.317-0.088-0.633-0.131-0.949c0.046-0.015,0.083-0.038,0.131-0.052
			c-0.091-0.647-0.18-1.296-0.27-1.944c0-0.093,0-0.187,0-0.278c-2.526-0.53-12.15,2.195-15.086,2.859
			c-1.568,0.271-3.137,0.543-4.705,0.815c-0.221,0.176-0.181,0.646-0.07,1.104C144.265,21.962,144.724,23.199,144.87,23.488z"/>
		<path fill="#150F0C" stroke="#150F0C" d="M108.312,71.82c2.196,1.396,4.769,2.149,7.874,2.67c2.372,0.396,5.419-0.984,7.193-0.39
			c0.551,0.512,1.102,1.021,1.653,1.534c2.424,1.905,4.801,4.443,7.725,5.725c7.874,3.448,16.819-1.696,19.252-7.008
			c0.091-0.094,0.184-0.186,0.277-0.278c-0.161-0.113-0.322-0.227-0.483-0.34c0.066-0.128,0.146-0.255,0.206-0.384
			c0.089-0.092,0.181-0.185,0.275-0.275c-1.058-0.745-2.115-1.49-3.172-2.235c-7.479,6.917-8.445,2.075-14.396-1.038
			c0.817-0.805,2.157-1.326,2.932-2.033c2.216-2.022,4.143-4.978,5.148-8.176c0.698-2.217,0.962-4.771,0.91-7.333
			c0.035-2.63-0.277-5.312-0.855-7.691c-2.808-11.543-7.321-18.67-21.92-18.559c-1.983,0.363-3.968,0.727-5.951,1.089
			c-5.548,1.597-10.723,4.224-13.864,8.278c-2.715,3.505-3.791,7.95-3.714,12.53C97.201,57.524,102.315,68.01,108.312,71.82z
			 M109.132,37.378c1.506-3.659,4.164-4.057,7.768-5.664c11.165-0.136,13.391,12.29,15.41,21.31c0.32,1.432,0.5,2.841,0.544,4.198
			c-0.095,5.501-2.498,9.966-6.971,11.166c-2.879,0.771-5.891-0.178-7.601-1.419c-3.887-2.818-9.859-15.163-10.082-24.542
			C108.242,40.569,108.527,38.85,109.132,37.378z"/>
		<path fill="#150F0C" stroke="#150F0C" d="M49.186,52.702c1.374-0.044,3.021-0.361,4.011,0.295c2.158,1.428,2.782,5.812,3.84,8.349
			c2.648,6.582,5.299,13.169,7.948,19.753c0.726,1.736,1.49,3.554,1.638,5.224c-0.105,1.282-0.684,2.441-2.09,3.356
			c0.083,0.271,0.167,0.543,0.25,0.813c-0.084,0.062-0.159,0.127-0.25,0.188c0.227,0.74,0.456,1.481,0.683,2.224
			c3.648-1.421,7.296-2.841,10.944-4.263c4.569-1.557,9.139-3.112,13.71-4.668c2.703-0.967,5.74-2.581,8.862-2.882
			c0.089-0.419,0.096-0.898,0.054-1.412c0.289-2.984-2.427-8.144-2.777-11.268c-1.218-0.272-3.572,0.617-4.569,1.232
			c-0.629,0.514-0.848,6.101-1.411,7.218c-1.649,3.277-7.977,4.954-11.78,5.926c-1.985-5.31-3.974-10.621-5.959-15.931
			c2.409-0.759,5.964-3.033,8.521-1.394c0.825,0.884,1.653,1.767,2.478,2.648c1.339-0.504,2.68-1.009,4.019-1.511
			c-0.102-0.296-0.203-0.592-0.304-0.888c0.101-0.039,0.203-0.077,0.304-0.114c-1.415-4.125-2.827-8.25-4.241-12.377
			c-1.289-0.249-2.894,0.718-4.153,1.096c-0.19,1.388-0.38,2.776-0.57,4.164c-1.106,2.192-5.249,2.963-7.622,3.858
			c-1.771-4.654-3.545-9.309-5.316-13.961c1.191-0.83,3.11-1.049,4.55-1.568c5.018-1.811,10.66-3.521,13.27,2.273
			c1.63,0.301,3.289-1.034,5.123-1.229c0.06-0.338,0.057-0.713,0.01-1.115c0.354-2.614-2.629-7.249-3.014-10.174
			c-0.277-0.002-0.553-0.002-0.831-0.004c-4.246,1.418-8.495,2.837-12.74,4.257c-7.756,2.885-15.513,5.771-23.271,8.66
			c0.092,0.299,0.184,0.598,0.275,0.896c-0.092,0.034-0.184,0.068-0.275,0.104C48.732,51.219,48.959,51.96,49.186,52.702z"/>
		<path fill="#150F0C" stroke="#150F0C" d="M9.613,79.487c0.016-0.007,0.031-0.014,0.046-0.021c-0.072-1.528-0.145-3.06-0.217-4.59
			c0.796-4.043,4.246-5.025,7.455-6.604c4.665,9.74,9.331,19.48,13.996,29.222c0.629,1.316,1.206,2.767,1.332,4.1
			c-0.134,1.251-0.822,2.318-2.468,2.949c0.12,0.279,0.241,0.56,0.361,0.837c-0.119,0.057-0.23,0.115-0.361,0.165
			c0.32,0.741,0.64,1.484,0.96,2.227c6.141-2.754,12.284-5.51,18.425-8.264c-0.101-0.287-0.202-0.574-0.303-0.862
			c0.101-0.045,0.202-0.092,0.303-0.137c-0.225-0.651-0.454-1.299-0.681-1.948c-1.558-0.302-3.271,0.651-4.702-0.436
			c-2.177-1.65-3.252-6.407-4.391-9.044c-3.577-7.976-7.156-15.953-10.733-23.928c0.937-0.404,1.874-0.811,2.811-1.213
			c5.772-2.569,7.133,1.341,10.359,3.929c1.568-0.596,3.14-1.191,4.709-1.787c-0.02-0.249-0.08-0.572-0.165-0.938
			c0.055-0.021,0.11-0.042,0.165-0.062c-0.171-2.189-3.161-9.548-4.385-10.988c-0.138,0-0.275-0.002-0.414-0.002
			c-5.957,2.522-11.916,5.048-17.873,7.569C15.9,63.427,7.952,67.193,0.01,70.957c-0.032,0.276,0.005,0.602,0.089,0.957
			c-0.03,0.014-0.06,0.028-0.089,0.042c-0.27,2.34,4.098,7.907,4.938,10.575c1.569-0.688,3.139-1.375,4.711-2.064
			C9.643,80.14,9.628,79.813,9.613,79.487z"/>
	</g>
	<g>
		<path fill="#F9E346" stroke="#F9E346" d="M553.662,66.748c-5.542-2.716-11.225-5.276-16.979-7.981
			c-3.781-1.775-8.212-4.719-12.565-5.466c-0.279,0.648-0.559,1.296-0.839,1.942c0.894,1.059,3.148,1.96,2.611,4.315
			c-3.812,8.641-7.627,17.286-11.44,25.928c-1.767,4.037-1.838,7.543-7.497,7.472c-0.279,0.646-0.56,1.294-0.838,1.94
			c3.819,1.682,7.643,3.364,11.462,5.044c7.039,3.359,14.082,6.721,21.123,10.081c2.041-3.417,4.084-6.835,6.125-10.254
			c-1.521-0.791-3.038-1.585-4.557-2.378c-2.081,1.583-3.583,3.81-6.519,4.559c-3.671,0.935-8.906-3.257-12.016-4.214
			c2.464-5.451,4.928-10.907,7.392-16.359c4.123,0.964,8.465,3.003,7.297,8.64c1.382,0.604,2.763,1.213,4.144,1.819
			c1.951-3.973,3.902-7.946,5.854-11.92c-1.335-0.653-2.67-1.308-4.003-1.96c-6.029,4.621-5.015,1.653-11.204,0.095
			c-0.09-0.093-0.184-0.186-0.275-0.278c2.139-4.713,4.278-9.429,6.416-14.143c1.581-0.313,3.775,1.488,5.11,2.104
			c5.956,2.745,7.987,3.089,7.84,11.28c1.61,0.746,3.224,1.493,4.833,2.24c1.626-3.141,3.252-6.284,4.876-9.425
			C557.896,68.802,555.779,67.776,553.662,66.748z"/>
		<path fill="#F9E346" stroke="#F9E346" d="M508.226,49.352c-4.708-6.134-14.875-8.144-22.778-11.06
			c-3.685-1.265-7.366-2.53-11.051-3.793c-0.232,0.739-0.466,1.479-0.7,2.22c3.854,2.093,2.602,5.401,1.211,9.31
			c-2.611,7.489-5.225,14.981-7.833,22.471c-1.064,2.934-1.471,8.164-6.111,6.92c-0.543,0.485-0.858,1.475-0.978,2.357
			c5.984,2.014,11.973,4.028,17.956,6.042c0.278-0.695,0.559-1.388,0.838-2.08c-5.715-3.675,0.826-11.926,1.863-17.077
			c10.651,1.215,5.18,15.599,9.04,23.369c0.807,1.306,10.931,4.718,12.979,5.604c0.324-0.691,0.65-1.387,0.976-2.078
			c-4.916-5.263-2.605-8.463-4.503-16.13c-0.58-2.348-1.921-3.833-2.743-5.703c-0.507-0.514-1.012-1.023-1.516-1.535
			c4.309-1.088,7.792-0.452,10.797-2.458C510.414,62.566,512.14,54.451,508.226,49.352z M498.1,57.09
			c-0.842,2.032-1.859,4.045-3.613,5.124c-3.975,2.441-8.715-0.445-12.308-1.157c2.099-5.871,4.194-11.744,6.292-17.615
			C495.375,44.81,501.572,48.719,498.1,57.09z"/>
		<path fill="#F9E346" stroke="#F9E346" d="M459.148,44.024c1.55-4.558,1.101-9.711,7.365-9.695c0.233-0.693,0.467-1.388,0.7-2.08
			c-1.934-0.609-3.868-1.219-5.803-1.828c-4.604-1.359-9.21-2.722-13.815-4.082c-0.187,0.602-0.373,1.203-0.558,1.806
			c0.563,1.796,3.571,1.626,3.024,4.594c-2.662,9.062-5.326,18.129-7.987,27.191c-1.219,4.034-0.937,8.001-6.256,8.031
			c-0.188,0.74-0.374,1.479-0.562,2.221c6.033,1.782,12.067,3.563,18.099,5.347c0.234-0.693,0.468-1.387,0.7-2.08
			c-0.914-0.951-2.405-1.426-2.756-2.928c-0.615-2.639,1.444-6.102,2.105-8.047C455.32,56.325,457.233,50.172,459.148,44.024z"/>
		<path fill="#F9E346" stroke="#F9E346" d="M441.099,25.204c-0.342-1.358-8.452-2.708-10.359-3.234
			c-7.592-2.099-15.49-3.461-23.493-5.369c-3.547-0.707-7.095-1.417-10.643-2.125c-0.752,3.793-1.503,7.588-2.254,11.379
			c1.659,0.33,3.318,0.662,4.976,0.991c3.009-2.622,3.018-7.225,9.289-5.937c1.151,0.237,2.305,0.473,3.455,0.708
			c0.138,0.047,0.276,0.094,0.415,0.142c-2.11,9.202-4.221,18.41-6.33,27.614c-1.203,4.77-0.386,9.711-6.537,9.695
			c-0.143,0.558-0.281,1.112-0.423,1.667c0,0.23-0.002,0.462-0.002,0.695c6.296,0.753,13.395,2.346,19.069,4.379
			c0.232-0.602,0.466-1.203,0.698-1.803c-0.518-1.575-2.881-1.43-3.306-3.347c-0.655-2.94,1.103-6.32,1.69-8.604
			c1.5-6.151,2.999-12.306,4.497-18.455c0.738-2.721,0.749-7.285,2.387-9.295c5.85,1.81,8.971,2.39,8.813,10.172
			c1.704,0.423,3.409,0.846,5.112,1.269C439.136,32.233,440.118,28.718,441.099,25.204z"/>
		<path fill="#F9E346" stroke="#F9E346" d="M364.688,41.989c-2.17-11.21-4.342-22.424-6.511-33.634
			c-3.502-0.385-7.006-0.769-10.508-1.152c-5.477,9.932-10.956,19.865-16.435,29.797c-2.634,4.571-3.442,9.544-9.033,11.216
			c-0.048,0.739-0.098,1.48-0.147,2.222c5.117,0.437,10.233,0.873,15.35,1.31c0.047-0.741,0.096-1.481,0.146-2.223
			c-6.636-1.5-1.547-8.378-0.371-11.807c5.254,0.577,10.509,1.153,15.763,1.728c0.95,4.171,2.946,11.507-3.088,11.377
			c-0.095,0.787-0.188,1.573-0.284,2.361c6.496,0.903,12.993,1.808,19.49,2.713c0.047,0,0.092,0,0.139,0
			c0.142-0.786,0.283-1.573,0.425-2.359C365.137,52.445,365.637,46.605,364.688,41.989z M352.264,35.277
			c-4.331-0.436-8.663-0.867-12.995-1.302c0.043-1.532,1.755-3.579,2.51-4.99c2.183-4.158,4.364-8.315,6.548-12.474
			c0.92,0.84,0.749,3.05,1.089,4.446c0.95,4.728,1.9,9.453,2.851,14.179C352.266,35.184,352.266,35.231,352.264,35.277z"/>
		<path fill="#F9E346" stroke="#F9E346" d="M313.083,45.54c-1.032-2.538-0.028-9.072,0.322-11.804
			c0.447-8.469,0.896-16.941,1.343-25.41c3.561,0.028,7.041,0.321,8.564,2.395c3.049,4.143-0.315,6.351,7.308,6.416
			c0.336-3.608,0.673-7.219,1.009-10.827c0.002-0.233,0.002-0.465,0.004-0.694c-14.808-1.469-29.6-2.148-45.495-2.121
			c-0.017,3.841-0.031,7.685-0.046,11.526c1.705,0.052,3.411,0.105,5.116,0.158c2.428-6.418,3.064-7.614,11.646-7.453
			c-0.358,9.439-0.719,18.885-1.076,28.327c-0.45,2.903,0.508,6.559-0.586,8.887c-0.596,1.264-2.377,1.854-4.158,1.928
			c-0.002,0.788-0.006,1.575-0.008,2.361c6.543,0.303,13.091,0.607,19.637,0.91c0.095-0.695,0.188-1.39,0.283-2.082
			C315.65,46.966,313.785,47.265,313.083,45.54z"/>
		<path fill="#F9E346" stroke="#F9E346" d="M259.814,14.363c-1.383-5.563,4.74-8.506,10.126-7.183
			c3.157,0.775,5.576,3.429,6.059,6.829c1.752,0.054,3.504,0.107,5.256,0.159c0.012-3.24,0.023-6.481,0.037-9.722
			c-4.241-0.938-8.952-1.492-14.103-1.444c-2.957,1.197-6.697,0.601-9.413,1.63c-5.31,2.021-11.389,6.935-8.494,14.829
			c0.697,1.898,1.492,3.696,2.887,4.872c5.104,4.306,17.636,6.651,18.895,13.963c0.976,5.667-4.897,8.713-10.401,7.32
			c-3.427-0.867-5.912-3.715-6.473-7.386c-1.661,0.04-3.319,0.079-4.98,0.12c0.126,3.426,0.25,6.853,0.376,10.278
			c2.738,0.895,5.848,0.304,9.125,0.867c12.414,2.141,26.294-4.257,22.749-16.994C278.544,22.025,261.824,22.444,259.814,14.363z"/>
		<path fill="#F9E346" stroke="#F9E346" d="M234.245,46.071c-2.351,1.717-8.168,1.569-11.625,1.898c-0.047,0-0.094-0.002-0.14-0.002
			c-0.623-5.927-1.246-11.855-1.869-17.782c4.971-1.507,9.329-0.683,10.361,3.65c1.43-0.041,2.858-0.081,4.288-0.122
			c-0.307-4.399-0.611-8.801-0.918-13.198c-0.778-0.728-3.193-0.072-4.425-0.018c-0.513,5.007-4.302,5.758-9.703,5.657
			c-0.535-4.909-1.068-9.819-1.604-14.729c0.002-0.323,0.002-0.647,0.004-0.972c8.236-0.902,14.939-2.629,17.269,5.066
			c1.752,0.008,3.504,0.014,5.256,0.021c-0.171-3.565-0.341-7.132-0.512-10.698c-0.091-0.047-0.184-0.094-0.275-0.14
			c-5.396,0.396-10.793,0.792-16.187,1.188c-7.287,0.806-14.577,1.61-21.864,2.416c-0.047,0.092-0.093,0.184-0.14,0.276
			c0.092,0.648,0.181,1.298,0.27,1.946c1.45,0.502,3.215,0.537,4.005,1.682c1.332,1.934,0.886,5.632,1.352,8.339
			c0.849,6.575,1.701,13.154,2.551,19.731c0.787,4.532,1.684,9.631-2.532,10.824c0.045,0.785,0.088,1.573,0.13,2.36
			c3.275-0.402,6.55-0.809,9.825-1.212c8.44-0.709,16.879-1.417,25.319-2.125c-0.031-4.026-0.062-8.055-0.091-12.083
			C234.15,38.303,238.944,42.634,234.245,46.071z"/>
		<path fill="#F9E346" stroke="#F9E346" d="M195.788,11.615c-0.089-0.786-0.179-1.573-0.268-2.361
			c-0.184-0.002-0.369-0.002-0.553-0.002c-5.397,0.812-10.795,1.624-16.192,2.439c-0.047,0.093-0.091,0.185-0.138,0.277
			c0.135,0.694,0.27,1.389,0.406,2.083c1.271,1.266,3.424-0.39,4.417,2.241c0.497,3.009,0.991,6.022,1.486,9.033
			c1.006,4.773,4.474,20.352,2.256,24.869c-0.947,1.928-3.02,3.116-5.27,3.729c-13.286,3.62-12.924-16.403-15.116-25.613
			c-1.061-4.455-2.941-10.932,1.845-12.354c-0.09-0.647-0.181-1.298-0.27-1.946c0-0.093,0.002-0.185,0.002-0.277
			c-2.528-0.529-12.153,2.195-15.086,2.857c-1.57,0.272-3.138,0.544-4.707,0.815c-0.424,0.339,0.111,1.771,0.27,2.085
			c1.425,1.341,3.594,0.314,4.556,2.239c0.497,2.315,0.995,4.633,1.494,6.948c3.157,12.771,2.796,32.901,21.047,30.082
			c2.579-0.397,5.218-0.76,7.474-1.359c3.853-1.023,7.545-2.249,9.701-4.963c5.345-6.728,1.816-20.848,0.114-29.582
			C192.319,18.056,191.157,12.962,195.788,11.615z"/>
		<path fill="#F9E346" stroke="#F9E346" d="M138.18,66.532c0.563-1.271,2.482-1.865,3.467-2.765
			c2.217-2.022,4.144-4.978,5.149-8.175c1.325-4.21,1.121-9.636,0.054-14.026c-2.808-11.542-7.32-18.67-21.92-18.559
			c-1.985,0.363-3.97,0.726-5.952,1.09c-5.547,1.599-10.721,4.224-13.862,8.28c-8.249,10.647-1.436,29.959,7.194,35.442
			c2.198,1.396,4.771,2.15,7.873,2.67c2.373,0.398,5.421-0.984,7.194-0.388c0.551,0.511,1.102,1.022,1.653,1.532
			c2.424,1.908,4.802,4.445,7.724,5.727c7.875,3.447,16.821-1.698,19.252-7.01c0.092-0.092,0.186-0.186,0.277-0.276
			c-1.057-0.745-2.114-1.49-3.172-2.235C145.413,74.96,144.618,69.619,138.18,66.532z M129.884,65.388
			c-2.881,0.771-5.892-0.179-7.603-1.419c-4.816-3.493-12.838-21.614-9.148-30.59c1.504-3.661,4.162-4.059,7.767-5.665
			c11.164-0.136,13.389,12.29,15.408,21.309C138.035,56.739,135.705,63.824,129.884,65.388z"/>
		<path fill="#F9E346" stroke="#F9E346" d="M95.439,66.643c-0.628,0.514-0.848,6.098-1.41,7.218
			c-1.65,3.277-7.978,4.955-11.779,5.925c-2.099-5.609-4.198-11.22-6.298-16.829c2.404-0.632,6.182-3.211,8.857-1.494
			c0.826,0.882,1.652,1.766,2.479,2.648c1.339-0.504,2.677-1.009,4.016-1.511c-1.412-4.127-2.826-8.253-4.239-12.378
			c-1.288-0.248-2.895,0.718-4.154,1.094c-0.19,1.39-0.378,2.778-0.568,4.166c-1.106,2.191-5.25,2.963-7.623,3.858
			c-1.87-4.914-3.743-9.827-5.615-14.742c1.149-1.023,3.285-1.224,4.849-1.787c5.019-1.812,10.66-3.521,13.269,2.273
			c1.631,0.301,3.291-1.034,5.124-1.229c0.456-2.596-2.613-7.323-3.005-10.291c-0.276,0-0.554-0.002-0.829-0.002
			c-4.247,1.418-8.493,2.837-12.74,4.254c-7.757,2.887-15.514,5.773-23.271,8.661c0.227,0.74,0.456,1.481,0.683,2.225
			c1.373-0.046,3.021-0.363,4.01,0.293c2.158,1.431,2.784,5.813,3.842,8.349c2.648,6.583,5.297,13.167,7.945,19.753
			c1.457,3.482,3.068,7.288-0.452,9.58c0.229,0.741,0.456,1.484,0.683,2.226c3.647-1.42,7.297-2.842,10.944-4.262
			c4.569-1.559,9.14-3.114,13.711-4.671c2.702-0.966,5.74-2.579,8.862-2.883c0.615-2.896-2.355-8.404-2.722-11.676
			C98.79,65.138,96.437,66.026,95.439,66.643z"/>
		<path fill="#F9E346" stroke="#F9E346" d="M47.759,93.124c-2.176-1.65-3.252-6.407-4.391-9.045
			c-3.702-8.253-7.405-16.511-11.107-24.764c1.061-0.458,2.123-0.917,3.186-1.375c5.772-2.571,7.132,1.341,10.358,3.929
			c1.57-0.596,3.139-1.193,4.709-1.789c-0.171-2.19-3.159-9.55-4.383-10.989c-0.14,0-0.277,0-0.415,0
			c-5.957,2.522-11.915,5.048-17.871,7.568c-7.944,3.766-15.889,7.531-23.834,11.297c-0.27,2.34,4.101,7.906,4.939,10.574
			c1.57-0.689,3.141-1.377,4.711-2.064c-0.085-1.806-0.171-3.612-0.256-5.419c0.729-4.193,4.239-5.176,7.495-6.776
			c4.664,9.739,9.33,19.482,13.996,29.22c1.418,2.971,2.584,6.626-1.139,8.052c0.32,0.742,0.64,1.485,0.96,2.227
			c6.143-2.753,12.285-5.509,18.428-8.263c-0.229-0.648-0.456-1.298-0.685-1.946C50.904,93.258,49.191,94.21,47.759,93.124z"/>
	</g>
	<g>
		<path fill="#E13027" stroke="#E13027" d="M328.747,164.911c-1.652,0-2.872,0.665-3.656,1.995c-0.434,0.73-0.65,1.532-0.65,2.399
			c0,1.152,0.39,2.141,1.17,2.961c0.361,0.382,0.805,0.684,1.325,0.909c0.522,0.226,1.078,0.34,1.671,0.34
			c0.927,0,1.759-0.348,2.495-1.037c-0.163,1.199-0.489,2.14-0.976,2.82c-0.621,0.867-1.383,1.301-2.285,1.301
			c-0.738,0-1.36-0.277-1.871-0.834l-0.879,1.546c0.258,0.258,0.619,0.498,1.084,0.722c0.465,0.223,0.976,0.333,1.526,0.333
			c1.729,0,3.064-0.642,4.007-1.924c0.944-1.284,1.416-3.099,1.416-5.449c0-1.951-0.37-3.452-1.113-4.506
			C331.269,165.436,330.182,164.911,328.747,164.911z M331.042,169.684c-0.176,0.586-0.418,1.049-0.729,1.389
			c-0.416,0.444-0.921,0.667-1.513,0.667c-0.655,0-1.196-0.234-1.621-0.702c-0.425-0.469-0.638-0.704-0.638-0.704s0-0.378,0-1.134
			c0-0.755,0.246-1.372,0.738-1.845c0.458-0.452,0.968-0.678,1.529-0.678c0.604,0,1.113,0.244,1.532,0.732
			c0.419,0.491,0.665,1.209,0.736,2.16L331.042,169.684z"/>
		<path fill="#E13027" stroke="#E13027" d="M316.587,170.031c-0.521-0.229-1.078-0.34-1.67-0.34c-0.927,0-1.759,0.347-2.498,1.037
			c0.166-1.2,0.492-2.141,0.979-2.821c0.62-0.867,1.383-1.3,2.283-1.3c0.737,0,1.362,0.277,1.872,0.834l0.879-1.547
			c-0.259-0.258-0.618-0.497-1.085-0.721c-0.466-0.224-0.975-0.334-1.525-0.334c-1.729,0-3.064,0.641-4.007,1.925
			c-0.944,1.283-1.415,3.099-1.415,5.449c0,1.951,0.369,3.452,1.11,4.503c0.743,1.054,1.83,1.579,3.267,1.579
			c1.651,0,2.87-0.666,3.655-1.996c0.434-0.73,0.651-1.531,0.651-2.398c0-1.153-0.39-2.142-1.17-2.961
			C317.551,170.558,317.107,170.256,316.587,170.031z M316.982,174.006c0,0.756-0.246,1.371-0.739,1.847
			c-0.457,0.451-0.968,0.677-1.53,0.677c-0.602,0-1.114-0.244-1.533-0.732c-0.419-0.49-0.664-1.211-0.734-2.159l0.035-0.114
			c0.176-0.586,0.419-1.049,0.729-1.39c0.417-0.442,0.922-0.667,1.513-0.667c0.656,0,1.197,0.234,1.622,0.702
			c0.425,0.471,0.639,0.704,0.639,0.704S316.982,173.251,316.982,174.006z"/>
		<path fill="#E13027" stroke="#E13027" d="M300.804,164.911c-1.652,0-2.869,0.665-3.654,1.995c-0.435,0.73-0.649,1.532-0.649,2.399
			c0,1.152,0.388,2.141,1.167,2.961c0.364,0.382,0.807,0.684,1.328,0.909s1.077,0.34,1.67,0.34c0.926,0,1.758-0.348,2.496-1.037
			c-0.165,1.199-0.491,2.14-0.977,2.82c-0.621,0.867-1.383,1.301-2.285,1.301c-0.737,0-1.361-0.277-1.873-0.834l-0.877,1.546
			c0.258,0.258,0.617,0.498,1.086,0.722c0.465,0.223,0.973,0.333,1.523,0.333c1.729,0,3.065-0.642,4.008-1.924
			c0.943-1.284,1.416-3.099,1.416-5.449c0-1.951-0.371-3.452-1.111-4.506C303.329,165.436,302.24,164.911,300.804,164.911z
			 M303.099,169.684c-0.176,0.586-0.418,1.049-0.729,1.389c-0.417,0.444-0.921,0.667-1.514,0.667c-0.654,0-1.195-0.234-1.621-0.702
			c-0.424-0.469-0.637-0.704-0.637-0.704s0-0.378,0-1.134c0-0.755,0.248-1.372,0.737-1.845c0.458-0.452,0.968-0.678,1.53-0.678
			c0.602,0,1.115,0.244,1.533,0.732c0.42,0.491,0.664,1.209,0.733,2.16L303.099,169.684z"/>
		<polygon fill="#E13027" stroke="#E13027" points="289.286,164.894 287.756,164.894 284.882,165.904 285.479,167.363 
			287.187,166.862 287.187,176.187 285.041,176.187 285.041,178.209 291.22,178.209 291.22,176.187 289.286,176.187 		"/>
		<polygon fill="#E13027" stroke="#E13027" points="266.167,172.118 270.007,172.118 270.007,170.344 266.167,170.344 
			266.167,166.661 271.687,166.661 271.687,164.894 264.067,164.894 264.067,178.209 272.021,178.209 272.021,176.319 
			266.167,176.319 		"/>
		<path fill="#E13027" stroke="#E13027" d="M256.944,174.642c-0.046,0.191-0.108,0.381-0.188,0.565
			c-0.079,0.186-0.184,0.368-0.316,0.549c-0.132,0.184-0.284,0.341-0.454,0.473c-0.169,0.131-0.378,0.237-0.628,0.318
			c-0.249,0.082-0.532,0.124-0.848,0.124c-0.316,0-0.615-0.06-0.896-0.176c-1.313-0.539-1.969-2.19-1.969-4.957
			c0-1.043,0.128-1.979,0.386-2.812c0.141-0.453,0.316-0.847,0.527-1.184c0.212-0.336,0.481-0.608,0.809-0.816
			c0.328-0.208,0.722-0.312,1.181-0.312c0.462,0,0.873,0.149,1.235,0.447c0.153,0.129,0.293,0.291,0.423,0.489
			c0.128,0.195,0.258,0.438,0.386,0.729c0.13,0.289,0.24,0.748,0.333,1.376l1.829-0.493v-0.008
			c-0.141-0.738-0.413-1.456-0.818-2.154c-0.832-1.435-1.964-2.151-3.399-2.151c-1.131,0-2.077,0.349-2.839,1.045
			c-0.357,0.328-0.676,0.711-0.955,1.147c-0.277,0.437-0.504,0.913-0.677,1.432c-0.173,0.52-0.303,1.052-0.39,1.597
			c-0.09,0.545-0.132,1.097-0.132,1.66c0,0.562,0.047,1.12,0.14,1.67c0.2,1.196,0.567,2.207,1.1,3.033
			c0.942,1.47,2.187,2.205,3.735,2.205c1.259,0,2.304-0.516,3.136-1.546c0.658-0.826,1.117-1.803,1.381-2.928l-1.96-0.272
			C257.076,173.985,257.033,174.302,256.944,174.642z"/>
		<polygon fill="#E13027" stroke="#E13027" points="242.269,173.067 237.927,164.894 235.22,164.894 235.22,178.209 
			237.312,178.209 237.312,167.996 242.692,178.209 244.362,178.209 244.362,164.894 242.269,164.894 		"/>
		<rect x="227.639" y="164.894" fill="#E13027" stroke="#E13027" width="2.1" height="13.314"/>
		<path fill="#E13027" stroke="#E13027" d="M221.411,171.574c-0.351-0.271-1.028-0.579-2.031-0.931l-0.386-0.133
			c-0.024-0.006-0.156-0.051-0.396-0.132l-0.423-0.142c-0.456-0.151-0.826-0.36-1.107-0.624c-0.339-0.304-0.51-0.743-0.51-1.317
			c0-1.255,0.611-1.881,1.829-1.881c0.223,0,0.436,0.034,0.642,0.104c0.821,0.287,1.424,1.046,1.808,2.279l1.714-0.605
			c-0.017-0.041-0.052-0.131-0.104-0.271l-0.167-0.466c-0.252-0.722-0.634-1.317-1.144-1.794c-0.714-0.673-1.631-1.01-2.75-1.01
			c-1.412,0-2.502,0.489-3.27,1.468c-0.438,0.591-0.659,1.198-0.659,1.819c0,0.737,0.126,1.379,0.378,1.924
			c0.487,1.043,1.583,1.813,3.288,2.312c0.967,0.281,1.646,0.598,2.038,0.95c0.235,0.21,0.4,0.458,0.493,0.743
			c0.095,0.283,0.142,0.655,0.142,1.115c0,0.459-0.161,0.855-0.479,1.189c-0.321,0.334-0.819,0.502-1.5,0.502
			c-0.679,0-1.247-0.161-1.705-0.483c-0.205-0.141-0.384-0.297-0.537-0.47c-0.151-0.173-0.267-0.346-0.347-0.521
			c-0.078-0.173-0.14-0.33-0.184-0.474c-0.043-0.145-0.073-0.261-0.091-0.348c-0.017-0.089-0.029-0.132-0.035-0.132l-1.689,0.553
			c0.006,0,0.02,0.041,0.041,0.124c0.019,0.081,0.055,0.192,0.101,0.334c0.046,0.14,0.106,0.302,0.18,0.482
			c0.074,0.182,0.171,0.374,0.295,0.576c0.122,0.201,0.266,0.403,0.431,0.606c0.163,0.201,0.367,0.394,0.605,0.575
			c0.241,0.181,0.504,0.341,0.791,0.483c0.287,0.14,0.628,0.252,1.024,0.333c0.395,0.082,0.818,0.123,1.27,0.123
			c0.452,0,0.867-0.048,1.249-0.149c0.989-0.256,1.712-0.8,2.17-1.626c0.34-0.614,0.51-1.221,0.51-1.818
			c0-0.763-0.159-1.485-0.475-2.171C222.264,172.339,221.927,171.973,221.411,171.574z"/>
		<path fill="#E13027" stroke="#E13027" d="M404.866,138.225c0.266-0.432,0.467-0.896,0.604-1.396
			c0.137-0.5,0.205-1.055,0.204-1.663c0-0.61-0.104-1.201-0.315-1.771c-0.727-1.961-2.461-2.94-5.203-2.94h-5.964v17.754h2.801
			v-7.699h2.624l3.069,7.699h2.872l-3.28-8.216C403.417,139.751,404.28,139.162,404.866,138.225z M402.008,137.475
			c-0.547,0.444-1.231,0.667-2.053,0.667h-2.963v-5.332h1.957c2.616,0,3.925,0.823,3.925,2.473
			C402.874,136.268,402.585,136.997,402.008,137.475z"/>
		<rect x="383.988" y="130.455" fill="#E13027" stroke="#E13027" width="2.801" height="17.754"/>
		<path fill="#E13027" stroke="#E13027" d="M369.872,130.455l-5.062,17.754h2.905l1.467-5.146h4.652l1.464,5.146h2.707
			l-5.063-17.754H369.872z M369.849,140.709l1.664-5.729l1.652,5.729H369.849z"/>
		<path fill="#E13027" stroke="#E13027" d="M355.041,130.454h-6.059v17.754h2.801v-7.699h3.632c1.367,0,2.47-0.37,3.305-1.112
			c1.141-1.032,1.711-2.484,1.711-4.361c0-1.055-0.254-1.95-0.761-2.684C358.786,131.087,357.244,130.454,355.041,130.454z
			 M356.575,137.364c-0.702,0.52-1.656,0.778-2.858,0.778h-1.934v-5.332h1.934c2.608,0,3.913,0.777,3.913,2.333
			C357.63,136.104,357.279,136.844,356.575,137.364z"/>
		<polygon fill="#E13027" stroke="#E13027" points="334.339,140.086 339.461,140.086 339.461,137.719 334.339,137.719 
			334.339,132.809 341.699,132.809 341.699,130.455 331.538,130.455 331.538,148.209 342.143,148.209 342.143,145.689 
			334.339,145.689 		"/>
		<path fill="#E13027" stroke="#E13027" d="M321.688,139.994c1.141-0.243,2.003-0.832,2.589-1.769
			c0.266-0.432,0.468-0.896,0.604-1.396c0.138-0.5,0.205-1.055,0.204-1.663c0-0.61-0.104-1.201-0.315-1.771
			c-0.727-1.961-2.462-2.94-5.203-2.94H313.6v17.754h2.803v-7.699h2.624l3.069,7.699h2.872L321.688,139.994z M319.366,138.142
			h-2.964v-5.332h1.957c2.616,0,3.926,0.823,3.926,2.473c0,0.985-0.289,1.714-0.867,2.192
			C320.871,137.92,320.186,138.142,319.366,138.142z"/>
		<polygon fill="#E13027" stroke="#E13027" points="252.318,132.809 252.318,130.455 242.157,130.455 242.157,148.209 
			252.761,148.209 252.761,145.689 244.958,145.689 244.958,140.086 250.08,140.086 250.08,137.719 244.958,137.719 
			244.958,132.809 		"/>
		<path fill="#E13027" stroke="#E13027" d="M232.832,142.183c0,0.393-0.058,0.812-0.174,1.267c-0.062,0.258-0.147,0.508-0.252,0.755
			c-0.104,0.246-0.246,0.49-0.422,0.732c-0.175,0.243-0.377,0.452-0.604,0.627c-0.227,0.177-0.506,0.318-0.838,0.429
			c-0.331,0.108-0.707,0.163-1.13,0.163c-0.421,0-0.82-0.078-1.195-0.233c-1.751-0.719-2.626-2.922-2.626-6.608
			c0-1.392,0.173-2.643,0.516-3.751c0.188-0.601,0.423-1.126,0.704-1.576c0.281-0.448,0.64-0.813,1.078-1.09
			c0.437-0.277,0.963-0.415,1.575-0.415c0.612,0,1.161,0.2,1.646,0.597c0.203,0.172,0.392,0.388,0.562,0.65
			c0.173,0.262,0.343,0.587,0.516,0.974c0.173,0.386,0.32,0.998,0.448,1.831l2.438-0.657v-0.012c-0.189-0.983-0.551-1.941-1.09-2.87
			c-1.11-1.914-2.622-2.872-4.537-2.872c-1.507,0-2.771,0.465-3.786,1.396c-0.475,0.438-0.9,0.947-1.27,1.529
			c-0.373,0.581-0.673,1.219-0.902,1.91c-0.231,0.69-0.405,1.4-0.522,2.127c-0.118,0.727-0.176,1.465-0.176,2.215
			c0,0.749,0.062,1.492,0.188,2.228c0.265,1.593,0.752,2.939,1.464,4.042c1.258,1.961,2.918,2.941,4.98,2.941
			c1.679,0,3.074-0.687,4.183-2.062c0.874-1.101,1.489-2.402,1.84-3.903L232.832,142.183z"/>
		<rect x="213.291" y="130.455" fill="#E13027" stroke="#E13027" width="2.8" height="17.754"/>
		<polygon fill="#E13027" stroke="#E13027" points="200.861,142.162 197.382,130.455 194.417,130.455 199.69,148.209 
			202.035,148.209 207.307,130.455 204.342,130.455 		"/>
		<path fill="#E13027" stroke="#E13027" d="M188.715,138.225c0.266-0.432,0.465-0.896,0.603-1.396
			c0.136-0.5,0.205-1.055,0.207-1.663c0-0.61-0.107-1.201-0.318-1.771c-0.726-1.961-2.46-2.94-5.202-2.94h-5.965v17.754h2.8v-7.699
			h2.626l3.07,7.699h2.87l-3.282-8.216C187.264,139.751,188.129,139.162,188.715,138.225z M185.854,137.475
			c-0.547,0.444-1.23,0.667-2.05,0.667h-2.965v-5.332h1.957c2.618,0,3.925,0.823,3.925,2.473
			C186.721,136.268,186.432,136.997,185.854,137.475z"/>
		<polygon fill="#E13027" stroke="#E13027" points="163.394,140.086 168.516,140.086 168.516,137.719 163.394,137.719 
			163.394,132.809 170.754,132.809 170.754,130.455 160.594,130.455 160.594,148.209 171.2,148.209 171.2,145.689 163.394,145.689 
					"/>
		<path fill="#E13027" stroke="#E13027" d="M152.008,139.362c-0.468-0.359-1.372-0.774-2.706-1.243l-0.516-0.175
			c-0.031-0.008-0.207-0.068-0.527-0.177l-0.562-0.188c-0.609-0.202-1.102-0.479-1.478-0.832c-0.452-0.405-0.679-0.991-0.679-1.757
			c0-1.672,0.813-2.508,2.438-2.508c0.296,0,0.582,0.046,0.855,0.14c1.094,0.384,1.899,1.396,2.413,3.037l2.285-0.809
			c-0.024-0.055-0.07-0.176-0.142-0.363l-0.221-0.62c-0.337-0.962-0.843-1.758-1.524-2.392c-0.952-0.898-2.176-1.349-3.667-1.349
			c-1.883,0-3.336,0.653-4.36,1.957c-0.586,0.789-0.878,1.599-0.878,2.426c0,0.985,0.167,1.841,0.504,2.567
			c0.648,1.391,2.108,2.417,4.383,3.082c1.288,0.374,2.194,0.797,2.717,1.265c0.313,0.281,0.532,0.612,0.658,0.991
			c0.124,0.378,0.186,0.874,0.186,1.487c0,0.614-0.211,1.143-0.638,1.588c-0.425,0.446-1.092,0.668-1.998,0.668
			c-0.906,0-1.664-0.214-2.273-0.645c-0.273-0.188-0.511-0.396-0.715-0.627s-0.357-0.462-0.464-0.691
			c-0.104-0.23-0.186-0.441-0.244-0.633c-0.06-0.192-0.101-0.346-0.124-0.463c-0.024-0.116-0.039-0.176-0.047-0.176l-2.25,0.737
			c0.008,0,0.025,0.056,0.052,0.165c0.028,0.108,0.072,0.257,0.134,0.445c0.064,0.187,0.144,0.401,0.241,0.645
			c0.099,0.243,0.229,0.498,0.394,0.769c0.163,0.27,0.354,0.539,0.574,0.809c0.22,0.271,0.489,0.526,0.809,0.767
			c0.32,0.243,0.671,0.458,1.055,0.646c0.382,0.186,0.838,0.335,1.363,0.444c0.528,0.109,1.092,0.165,1.695,0.165
			c0.602,0,1.156-0.066,1.664-0.2c1.319-0.344,2.285-1.066,2.894-2.168c0.454-0.821,0.681-1.63,0.681-2.425
			c0-1.017-0.212-1.982-0.634-2.896C153.147,140.38,152.696,139.893,152.008,139.362z"/>
		<path fill="#E13027" stroke="#E13027" d="M553.662,63.748c-5.542-2.716-11.225-5.275-16.979-7.98
			c-3.781-1.776-8.212-4.72-12.565-5.467c-0.279,0.649-0.559,1.296-0.839,1.941c0.894,1.059,3.148,1.96,2.611,4.315
			c-3.812,8.641-7.627,17.286-11.44,25.928c-1.767,4.038-1.838,7.544-7.497,7.472c-0.279,0.646-0.56,1.294-0.838,1.94
			c3.819,1.682,7.643,3.361,11.462,5.044c7.039,3.359,14.082,6.721,21.123,10.081c2.041-3.416,4.084-6.835,6.125-10.254
			c-1.521-0.791-3.038-1.585-4.557-2.378c-2.081,1.583-3.583,3.811-6.519,4.559c-3.671,0.935-8.906-3.257-12.016-4.214
			c2.464-5.453,4.928-10.907,7.392-16.359c4.123,0.964,8.465,3.003,7.297,8.638c1.382,0.607,2.763,1.215,4.144,1.821
			c1.951-3.973,3.902-7.946,5.854-11.92c-1.335-0.652-2.67-1.307-4.003-1.961c-6.029,4.623-5.015,1.655-11.204,0.097
			c-0.09-0.092-0.184-0.186-0.275-0.278c2.139-4.713,4.278-9.431,6.416-14.143c1.581-0.313,3.775,1.488,5.11,2.104
			c5.956,2.745,7.987,3.089,7.84,11.28c1.61,0.746,3.224,1.493,4.833,2.24c1.626-3.141,3.252-6.284,4.876-9.425
			C557.896,65.802,555.779,64.776,553.662,63.748z"/>
		<path fill="#E13027" stroke="#E13027" d="M508.226,46.352c-4.708-6.134-14.875-8.144-22.778-11.06
			c-3.685-1.265-7.366-2.53-11.051-3.793c-0.232,0.739-0.466,1.479-0.7,2.219c3.854,2.093,2.602,5.402,1.211,9.31
			c-2.611,7.489-5.225,14.981-7.833,22.471c-1.064,2.934-1.471,8.164-6.111,6.92c-0.543,0.485-0.858,1.475-0.978,2.357
			c5.984,2.014,11.973,4.028,17.956,6.042c0.278-0.695,0.559-1.388,0.838-2.08c-5.715-3.675,0.826-11.926,1.863-17.077
			c10.651,1.214,5.18,15.598,9.04,23.369c0.807,1.305,10.931,4.717,12.979,5.604c0.324-0.692,0.65-1.387,0.976-2.079
			c-4.916-5.262-2.605-8.462-4.503-16.129c-0.58-2.35-1.921-3.833-2.743-5.703c-0.507-0.513-1.012-1.022-1.516-1.534
			c4.309-1.088,7.792-0.452,10.797-2.458C510.414,59.566,512.14,51.451,508.226,46.352z M498.1,54.09
			c-0.842,2.032-1.859,4.045-3.613,5.124c-3.975,2.441-8.715-0.445-12.308-1.157c2.099-5.871,4.194-11.744,6.292-17.615
			C495.375,41.81,501.572,45.719,498.1,54.09z"/>
		<path fill="#E13027" stroke="#E13027" d="M459.148,41.024c1.55-4.558,1.101-9.71,7.365-9.695c0.233-0.693,0.467-1.388,0.7-2.08
			c-1.934-0.609-3.868-1.219-5.803-1.828c-4.604-1.359-9.21-2.722-13.815-4.082c-0.187,0.603-0.373,1.203-0.558,1.807
			c0.563,1.797,3.571,1.626,3.024,4.594c-2.662,9.062-5.326,18.129-7.987,27.191c-1.219,4.034-0.937,8.001-6.256,8.031
			c-0.188,0.739-0.374,1.479-0.562,2.22c6.033,1.78,12.067,3.563,18.099,5.347c0.234-0.693,0.468-1.387,0.7-2.08
			c-0.914-0.95-2.405-1.426-2.756-2.927c-0.615-2.64,1.444-6.103,2.105-8.048C455.32,53.324,457.233,47.172,459.148,41.024z"/>
		<path fill="#E13027" stroke="#E13027" d="M441.099,22.205c-0.342-1.357-8.452-2.708-10.359-3.234
			c-7.592-2.1-15.49-3.462-23.493-5.37c-3.547-0.708-7.095-1.417-10.643-2.125c-0.752,3.793-1.503,7.588-2.254,11.383
			c1.659,0.329,3.318,0.661,4.976,0.991c3.009-2.623,3.018-7.226,9.289-5.938c1.151,0.236,2.305,0.473,3.455,0.708
			c0.138,0.047,0.276,0.093,0.415,0.142c-2.11,9.202-4.221,18.41-6.33,27.612c-1.203,4.771-0.386,9.713-6.537,9.697
			c-0.143,0.555-0.281,1.112-0.423,1.667c0,0.229-0.002,0.461-0.002,0.694c6.296,0.753,13.395,2.346,19.069,4.379
			c0.232-0.602,0.466-1.202,0.698-1.805c-0.518-1.573-2.881-1.428-3.306-3.345c-0.655-2.94,1.103-6.321,1.69-8.604
			c1.5-6.15,2.999-12.306,4.497-18.455c0.738-2.721,0.749-7.285,2.387-9.297c5.85,1.812,8.971,2.392,8.813,10.174
			c1.704,0.423,3.409,0.846,5.112,1.269C439.136,29.234,440.118,25.719,441.099,22.205z"/>
		<path fill="#E13027" stroke="#E13027" d="M322.201,45.216c-0.048,0.74-0.098,1.481-0.147,2.223
			c5.117,0.437,10.233,0.873,15.35,1.31c0.047-0.742,0.096-1.482,0.146-2.224c-6.636-1.5-1.547-8.378-0.371-11.807
			c5.254,0.577,10.509,1.153,15.763,1.728c0.95,4.171,2.946,11.507-3.088,11.377c-0.095,0.788-0.188,1.573-0.284,2.361
			c6.496,0.903,12.993,1.808,19.49,2.713c0.047,0,0.092,0,0.139,0c0.142-0.785,0.283-1.573,0.425-2.359
			c-4.486-1.092-3.986-6.932-4.936-11.548c-2.17-11.21-4.342-22.424-6.511-33.634c-3.502-0.385-7.006-0.769-10.508-1.152
			c-5.477,9.932-10.956,19.865-16.435,29.797C328.601,38.571,327.792,43.544,322.201,45.216z M341.778,25.986
			c2.183-4.158,4.364-8.316,6.548-12.474c0.92,0.839,0.749,3.049,1.089,4.446c0.95,4.728,1.9,9.453,2.851,14.179
			c0,0.048,0,0.095-0.002,0.139c-4.331-0.434-8.663-0.865-12.995-1.3C339.312,29.443,341.023,27.396,341.778,25.986z"/>
		<path fill="#E13027" stroke="#E13027" d="M302.854,4.725c-0.358,9.439-0.719,18.885-1.076,28.327
			c-0.45,2.903,0.508,6.559-0.586,8.887c-0.596,1.265-2.377,1.854-4.158,1.929c-0.002,0.788-0.006,1.573-0.008,2.361
			c6.543,0.303,13.091,0.606,19.637,0.91c0.095-0.695,0.188-1.39,0.283-2.082c-1.296-1.091-3.161-0.791-3.863-2.517
			c-1.032-2.538-0.028-9.073,0.322-11.804c0.447-8.469,0.896-16.941,1.343-25.41c3.561,0.027,7.041,0.32,8.564,2.394
			c3.049,4.141-0.315,6.351,7.308,6.416c0.336-3.608,0.673-7.219,1.009-10.829c0.002-0.231,0.002-0.462,0.004-0.692
			c-14.808-1.469-29.6-2.15-45.495-2.121c-0.017,3.841-0.031,7.685-0.046,11.526c1.705,0.052,3.411,0.105,5.116,0.158
			C293.636,5.76,294.272,4.564,302.854,4.725z"/>
		<path fill="#E13027" stroke="#E13027" d="M259.814,11.363c-1.383-5.563,4.74-8.506,10.126-7.183
			c3.157,0.776,5.576,3.429,6.059,6.829c1.752,0.053,3.504,0.106,5.256,0.159c0.012-3.24,0.023-6.481,0.037-9.722
			c-4.241-0.938-8.952-1.492-14.103-1.444c-2.957,1.197-6.697,0.601-9.413,1.629c-5.31,2.021-11.389,6.935-8.494,14.829
			c0.697,1.898,1.492,3.696,2.887,4.872c5.104,4.306,17.636,6.651,18.895,13.963c0.976,5.667-4.897,8.713-10.401,7.32
			c-3.427-0.867-5.912-3.715-6.473-7.386c-1.661,0.04-3.319,0.079-4.98,0.12c0.126,3.425,0.25,6.853,0.376,10.278
			c2.738,0.896,5.848,0.304,9.125,0.868c12.414,2.141,26.294-4.257,22.749-16.994C278.544,19.025,261.824,19.444,259.814,11.363z"/>
		<path fill="#E13027" stroke="#E13027" d="M243.081,47.131c-0.031-4.026-0.062-8.055-0.091-12.083
			c-8.84,0.256-4.046,4.587-8.745,8.023c-2.351,1.717-8.168,1.569-11.625,1.898c-0.047,0-0.094-0.002-0.14-0.002
			c-0.623-5.927-1.246-11.855-1.869-17.782c4.971-1.507,9.329-0.682,10.361,3.65c1.43-0.041,2.858-0.083,4.288-0.124
			c-0.307-4.398-0.611-8.799-0.918-13.196c-0.778-0.729-3.193-0.072-4.425-0.019c-0.513,5.007-4.302,5.758-9.703,5.657
			c-0.535-4.909-1.068-9.819-1.604-14.729c0.002-0.323,0.002-0.649,0.004-0.974c8.236-0.9,14.939-2.627,17.269,5.068
			c1.752,0.006,3.504,0.014,5.256,0.02c-0.171-3.563-0.341-7.13-0.512-10.696c-0.091-0.047-0.184-0.093-0.275-0.14
			c-5.396,0.396-10.793,0.792-16.187,1.188c-7.287,0.806-14.577,1.61-21.864,2.416c-0.047,0.093-0.093,0.184-0.14,0.276
			c0.092,0.648,0.181,1.298,0.27,1.946c1.45,0.5,3.215,0.537,4.005,1.682c1.332,1.934,0.886,5.632,1.352,8.339
			c0.849,6.575,1.701,13.154,2.551,19.731c0.787,4.532,1.684,9.631-2.532,10.824c0.045,0.786,0.088,1.573,0.13,2.36
			c3.275-0.402,6.55-0.809,9.825-1.212C226.202,48.547,234.641,47.839,243.081,47.131z"/>
		<path fill="#E13027" stroke="#E13027" d="M193.256,19.857c-0.937-4.801-2.099-9.896,2.532-11.242
			c-0.089-0.788-0.179-1.573-0.268-2.361c-0.184-0.002-0.369-0.002-0.553-0.002c-5.397,0.812-10.795,1.624-16.192,2.438
			c-0.047,0.092-0.091,0.184-0.138,0.276c0.135,0.694,0.27,1.39,0.406,2.083c1.271,1.266,3.424-0.39,4.417,2.241
			c0.497,3.01,0.991,6.023,1.486,9.034c1.006,4.773,4.474,20.352,2.256,24.869c-0.947,1.929-3.02,3.116-5.27,3.729
			c-13.286,3.62-12.924-16.403-15.116-25.613c-1.061-4.455-2.941-10.932,1.845-12.354c-0.09-0.647-0.181-1.298-0.27-1.946
			c0-0.093,0.002-0.184,0.002-0.276c-2.528-0.53-12.153,2.193-15.086,2.856c-1.57,0.272-3.138,0.544-4.707,0.815
			c-0.424,0.34,0.111,1.771,0.27,2.086c1.425,1.341,3.594,0.313,4.556,2.239c0.497,2.316,0.995,4.633,1.494,6.949
			c3.157,12.771,2.796,32.901,21.047,30.082c2.579-0.399,5.218-0.76,7.474-1.359c3.853-1.023,7.545-2.249,9.701-4.963
			C198.487,42.711,194.958,28.591,193.256,19.857z"/>
		<path fill="#E13027" stroke="#E13027" d="M138.18,63.532c0.563-1.271,2.482-1.865,3.467-2.765
			c2.217-2.022,4.144-4.978,5.149-8.175c1.325-4.21,1.121-9.636,0.054-14.026c-2.808-11.542-7.32-18.67-21.92-18.559
			c-1.985,0.363-3.97,0.726-5.952,1.09c-5.547,1.596-10.721,4.223-13.862,8.277c-8.249,10.649-1.436,29.962,7.194,35.444
			c2.198,1.396,4.771,2.149,7.873,2.67c2.373,0.398,5.421-0.984,7.194-0.388c0.551,0.511,1.102,1.022,1.653,1.532
			c2.424,1.908,4.802,4.445,7.724,5.727c7.875,3.448,16.821-1.698,19.252-7.01c0.092-0.092,0.186-0.185,0.277-0.275
			c-1.057-0.745-2.114-1.49-3.172-2.235C145.413,71.96,144.618,66.619,138.18,63.532z M129.884,62.388
			c-2.881,0.771-5.892-0.179-7.603-1.419c-4.816-3.493-12.838-21.614-9.148-30.59c1.504-3.661,4.162-4.059,7.767-5.665
			c11.164-0.136,13.389,12.291,15.408,21.309C138.035,53.739,135.705,60.824,129.884,62.388z"/>
		<path fill="#E13027" stroke="#E13027" d="M95.439,63.644c-0.628,0.514-0.848,6.097-1.41,7.215
			c-1.65,3.279-7.978,4.955-11.779,5.927c-2.099-5.609-4.198-11.22-6.298-16.829c2.404-0.633,6.182-3.211,8.857-1.494
			c0.826,0.884,1.652,1.766,2.479,2.648c1.339-0.504,2.677-1.009,4.016-1.511c-1.412-4.127-2.826-8.253-4.239-12.378
			c-1.288-0.249-2.895,0.718-4.154,1.094c-0.19,1.39-0.378,2.776-0.568,4.166c-1.106,2.191-5.25,2.963-7.623,3.858
			c-1.87-4.914-3.743-9.828-5.615-14.742c1.149-1.022,3.285-1.224,4.849-1.787c5.019-1.812,10.66-3.521,13.269,2.273
			c1.631,0.301,3.291-1.034,5.124-1.229c0.456-2.596-2.613-7.323-3.005-10.291c-0.276,0-0.554-0.002-0.829-0.002
			c-4.247,1.418-8.493,2.837-12.74,4.255c-7.757,2.887-15.514,5.773-23.271,8.661c0.227,0.74,0.456,1.481,0.683,2.225
			c1.373-0.046,3.021-0.363,4.01,0.293c2.158,1.431,2.784,5.813,3.842,8.35c2.648,6.582,5.297,13.168,7.945,19.752
			c1.457,3.482,3.068,7.29-0.452,9.58c0.229,0.742,0.456,1.485,0.683,2.227c3.647-1.423,7.297-2.843,10.944-4.263
			c4.569-1.559,9.14-3.114,13.711-4.67c2.702-0.967,5.74-2.581,8.862-2.884c0.615-2.898-2.355-8.404-2.722-11.676
			C98.79,62.138,96.437,63.027,95.439,63.644z"/>
		<path fill="#E13027" stroke="#E13027" d="M47.759,90.124c-2.176-1.65-3.252-6.406-4.391-9.045
			c-3.702-8.253-7.405-16.511-11.107-24.764c1.061-0.458,2.123-0.917,3.186-1.375c5.772-2.571,7.132,1.341,10.358,3.929
			c1.57-0.596,3.139-1.194,4.709-1.789c-0.171-2.189-3.159-9.55-4.383-10.989c-0.14,0-0.277,0-0.415-0.002
			c-5.957,2.525-11.915,5.05-17.871,7.569c-7.944,3.766-15.889,7.532-23.834,11.298c-0.27,2.34,4.101,7.906,4.939,10.574
			c1.57-0.689,3.141-1.377,4.711-2.064c-0.085-1.806-0.171-3.611-0.256-5.419c0.729-4.193,4.239-5.176,7.495-6.776
			c4.664,9.739,9.33,19.482,13.996,29.22c1.418,2.971,2.584,6.626-1.139,8.052c0.32,0.742,0.64,1.485,0.96,2.227
			c6.143-2.753,12.285-5.509,18.428-8.262c-0.229-0.649-0.456-1.299-0.685-1.947C50.904,90.258,49.191,91.21,47.759,90.124z"/>
	</g>
</g>
</svg>