<svg version="1.1" xmlns="http://www.w3.org/2000/svg" class="g-contribute" id="g-contribute" xmlns:xlink="http://www.w3.org/1999/xlink" x="0px" y="0px" viewBox="0 0 100 100" enable-background="new 0 0 100 100" xml:space="preserve">
  <g fill="none" stroke="#3fa652" stroke-width="4" stroke-linecap="round" stroke-miterlimit="10">
    <path stroke="#FFFFFF" d="M55.972,67.155c8.591-3.299,12.882-12.937,9.583-21.528c-3.298-8.59-12.936-12.881-21.527-9.583
    c-8.59,3.297-12.881,12.936-9.583,21.526c1.693,4.408,5.176,7.891,9.583,9.584L32.805,96.4C8.062,86.904-4.297,59.147,5.2,34.405
    C14.696,9.662,42.453-2.698,67.196,6.799c24.743,9.497,37.101,37.253,27.604,61.996C89.926,81.493,79.893,91.526,67.196,96.4
    L55.972,67.155z"/>
    <path class="logo-content" d="M29.5957,88.00098 c-8.44824-4.7334-15.05566-12.29004-18.56836-21.44629c-8.26172-21.52832,2.48438-45.6748,24.01074-53.93701 c21.5293-8.26172,45.6748,2.49072,53.93652,24.01611c7.53223,19.61816-0.74219,41.41504-18.57031,51.375"/>
    <path class="logo-content" d="M36.43262,70.1709 c-3.55078-2.59082-6.32324-6.16992-7.92676-10.35156C23.94824,47.94629,29.875,34.62891,41.74902,30.07129 c11.87402-4.55566,25.19043,1.37402,29.74707,13.24658c3.8125,9.93213,0.28125,20.87451-7.92773,26.854"/>
    <path class="logo-content" d="M31.85938,82.09766 c-6.80859-4.04688-12.12793-10.28613-15.00586-17.78809C9.82617,46,18.96582,25.46289,37.27539,18.43555 c18.31055-7.02637,38.84668,2.11816,45.87305,20.42676c6.29395,16.39355-0.3916,34.57324-15.00781,43.23828"/>
    <path class="logo-content" d="M34.13379,76.16504 c-5.17383-3.33887-9.21289-8.25684-11.4541-14.10059C16.8877,46.97266,24.4209,30.0459,39.51172,24.25391 c15.09277-5.7915,32.01953,1.74561,37.81055,16.83594c5.05566,13.16602-0.04395,27.73535-11.45508,35.08008"/>
    
  </g>
</svg>